<?xml version="1.0" encoding="utf-8"?>
<!-- Generator: Adobe Illustrator 24.0.3, SVG Export Plug-In . SVG Version: 6.00 Build 0)  -->
<svg version="1.1" id="Layer_1" xmlns="http://www.w3.org/2000/svg" xmlns:xlink="http://www.w3.org/1999/xlink" x="0px" y="0px"
	 viewBox="0 0 2000 1850" enable-background="new 0 0 2000 1850" xml:space="preserve">
<g>
	<g>
		<g>
			<g>
				<path fill="#F1F2F2" d="M1227.221,1691.044c5.131,2.961,12.902,3.286,17.349,0.721l365.629-211.099
					c4.446-2.566,3.886-7.053-1.246-10.018l-242.731-140.141c-5.132-2.961-12.905-3.286-17.35-0.721l-365.628,211.099
					c-4.446,2.566-3.886,7.053,1.245,10.014L1227.221,1691.044z"/>
			</g>
			<g>
				<path fill="#BE8EFF" d="M1609.218,1447.617c-0.089-0.055-0.175-0.105-0.27-0.16c0,0-47.872-27.642-62.862-36.294
					c-7.626-4.401-1.715-14.534-2.055-21.306v-7.876h-5.492v1.209l-98.139-56.66c-10.428-6.021-28.648,7.077-39.336,0.906
					c-15.179-8.762-34.848-20.12-34.848-20.12c-5.132-2.966-12.903-3.286-17.35-0.721l-363.577,209.914l-5.006-2.89v7.186
					c-0.011,0.194-0.005,0.39,0.01,0.585c-0.356,2.156,1.07,4.516,4.191,6.318l242.732,140.145
					c5.132,2.961,12.908,3.281,17.35,0.721l365.628-211.099c2.075-1.196,3.06-2.816,3-4.496c0.006-0.155,0-0.311-0.01-0.465
					l0.01-0.004v-7.188L1609.218,1447.617L1609.218,1447.617z"/>
				<path fill="#B37BFF" d="M1030.845,1495.244l201.547,116.365v57.45c-2.031-0.456-3.975-1.171-5.666-2.146l-241.722-139.56
					c-3.235-1.871-4.841-4.286-4.721-6.547v-7.186l9.162,5.291v0.24L1030.845,1495.244L1030.845,1495.244z"/>
				<path fill="#9647FF" d="M1227.221,1659.971c5.131,2.961,12.902,3.286,17.349,0.72l365.629-211.099
					c4.446-2.565,3.886-7.051-1.246-10.016c0,0-47.872-27.638-62.861-36.295c-10.068-5.812,3.46-21.615-4.957-26.473
					c-17.674-10.207-83.051-47.952-100.731-58.16c-10.428-6.021-28.647,7.077-39.335,0.906
					c-15.179-8.762-34.848-20.119-34.848-20.119c-5.132-2.961-12.905-3.287-17.35-0.721l-365.628,211.099
					c-4.446,2.566-3.886,7.051,1.245,10.012L1227.221,1659.971L1227.221,1659.971z"/>
			</g>
		</g>
		<g>
			<g>
				<path fill="#7E1CFF" d="M1239.538,1628.619c4.067,2.345,10.228,2.6,13.748,0.569l289.825-167.333
					c3.521-2.035,3.08-5.591-0.985-7.937l-192.409-111.088c-4.067-2.35-10.228-2.606-13.749-0.571l-289.829,167.329
					c-3.521,2.035-3.076,5.591,0.991,7.941L1239.538,1628.619z"/>
			</g>
			<g>
				<path fill="#B2D9FF" d="M1545.477,1447.447c0.105,1.524-0.761,3.001-2.641,4.086l-288.375,166.493
					c-3.926,2.265-10.787,1.98-15.318-0.636l-191.604-110.618c-2.571-1.486-3.841-3.401-3.746-5.196l0,0v-5.692l7.262,4.191v0.19
					l283.757-163.827c3.926-2.267,10.789-1.981,15.319,0.635l188.323,108.729l7.033-4.057v5.696L1545.477,1447.447
					L1545.477,1447.447z"/>
				<path fill="#9DCFFF" d="M1083.884,1481.32l159.761,92.239v45.537c-1.611-0.36-3.155-0.931-4.495-1.7l-191.605-110.624
					c-2.565-1.486-3.836-3.401-3.741-5.192v-5.696l7.262,4.191v0.19L1083.884,1481.32L1083.884,1481.32z"/>
				<path fill="#EDF6FF" d="M1239.538,1611.899c4.067,2.35,10.228,2.606,13.748,0.571l289.825-167.329
					c3.521-2.035,3.08-5.591-0.985-7.941l-192.409-111.084c-4.067-2.35-10.228-2.606-13.749-0.571l-289.829,167.329
					c-3.521,2.035-3.076,5.591,0.991,7.941L1239.538,1611.899z"/>
				<g>
					<path fill="#7EC0FF" d="M1452.813,1426.536c1.066-0.629,2.781-0.639,3.831-0.024l19.205,11.302
						c1.05,0.616,1.035,1.631-0.026,2.261l-2.085,1.235c-1.066,0.63-2.781,0.646-3.831,0.026l-19.205-11.298
						c-1.05-0.62-1.04-1.635,0.026-2.265L1452.813,1426.536L1452.813,1426.536z"/>
					<path fill="#7EC0FF" d="M1336.943,1498.86c1.064-0.63,2.781-0.646,3.831-0.026l19.205,11.298c1.05,0.62,1.04,1.635-0.026,2.265
						l-2.085,1.235c-1.066,0.63-2.78,0.64-3.831,0.026l-19.205-11.304c-1.05-0.615-1.035-1.629,0.03-2.26L1336.943,1498.86
						L1336.943,1498.86z"/>
					<path fill="#7EC0FF" d="M1399.15,1415.903c1.06-0.64,2.775-0.664,3.825-0.05l55.31,32.183c1.056,0.61,1.05,1.627-0.01,2.267
						l-2.071,1.25c-1.06,0.64-2.776,0.664-3.827,0.054l-55.308-32.183c-1.055-0.61-1.05-1.625,0.01-2.265L1399.15,1415.903
						L1399.15,1415.903z"/>
					<path fill="#7EC0FF" d="M1282.704,1489.517c1.066-0.63,2.782-0.64,3.832-0.02l55.104,32.589c1.05,0.62,1.035,1.635-0.03,2.265
						l-2.081,1.236c-1.066,0.63-2.786,0.64-3.831,0.02l-55.109-32.594c-1.045-0.615-1.036-1.63,0.03-2.26L1282.704,1489.517z"/>
					<path fill="#7EC0FF" d="M1346.311,1449.142c1.064-0.63,2.781-0.644,3.831-0.024l55.114,32.573
						c1.05,0.615,1.04,1.631-0.024,2.261l-2.087,1.235c-1.064,0.63-2.781,0.64-3.831,0.026l-55.114-32.574
						c-1.05-0.615-1.041-1.629,0.024-2.26L1346.311,1449.142L1346.311,1449.142z"/>
					<path fill="#7EC0FF" d="M1340.52,1381.846c1.059-0.642,2.775-0.661,3.83-0.051l49.213,28.528
						c1.055,0.615,1.05,1.631-0.01,2.271l-2.071,1.25c-1.06,0.64-2.771,0.664-3.825,0.054l-49.218-28.532
						c-1.05-0.61-1.05-1.625,0.01-2.265L1340.52,1381.846z"/>
					<path fill="#7EC0FF" d="M1221.754,1451.528c1.062-0.636,2.782-0.64,3.832-0.026l49.036,28.898
						c1.046,0.615,1.036,1.629-0.03,2.26l-2.085,1.236c-1.064,0.63-2.781,0.64-3.831,0.024l-49.038-28.897
						c-1.05-0.62-1.036-1.631,0.03-2.265L1221.754,1451.528z"/>
					<path fill="#7EC0FF" d="M1285.21,1413.238c1.065-0.63,2.781-0.64,3.831-0.024l49.047,28.877c1.05,0.615,1.035,1.631-0.03,2.265
						l-2.081,1.236c-1.065,0.63-2.781,0.639-3.831,0.02l-49.047-28.873c-1.05-0.62-1.035-1.635,0.03-2.265L1285.21,1413.238
						L1285.21,1413.238z"/>
					<path fill="#7EC0FF" d="M1390.802,1426.686c1.065-0.63,2.785-0.644,3.831-0.024l50.698,29.858c1.05,0.615,1.04,1.63-0.026,2.26
						l-2.085,1.236c-1.066,0.634-2.781,0.644-3.831,0.024l-50.698-29.858c-1.05-0.615-1.035-1.629,0.03-2.26L1390.802,1426.686
						L1390.802,1426.686z"/>
					<path fill="#7EC0FF" d="M1275.327,1499.215c1.066-0.63,2.781-0.646,3.831-0.026l50.698,29.858
						c1.05,0.62,1.04,1.631-0.024,2.265l-2.086,1.235c-1.065,0.63-2.781,0.642-3.831,0.021l-50.698-29.858
						c-1.05-0.616-1.035-1.631,0.031-2.261L1275.327,1499.215L1275.327,1499.215z"/>
					<path fill="#7EC0FF" d="M1337.288,1460.089c1.066-0.63,2.781-0.64,3.831-0.02l50.698,29.858
						c1.05,0.616,1.035,1.631-0.024,2.261l-2.087,1.235c-1.064,0.63-2.781,0.64-3.831,0.026l-50.698-29.858
						c-1.05-0.62-1.039-1.631,0.031-2.265L1337.288,1460.089z"/>
					<path fill="#7EC0FF" d="M1392.428,1442.221c1.066-0.63,2.781-0.64,3.831-0.026l36.929,21.74c1.05,0.62,1.036,1.635-0.028,2.265
						l-2.081,1.236c-1.066,0.63-2.782,0.64-3.832,0.024l-36.929-21.74c-1.05-0.62-1.036-1.635,0.026-2.265L1392.428,1442.221z"/>
					<path fill="#7EC0FF" d="M1275.303,1515.994c1.065-0.634,2.785-0.644,3.829-0.024l36.93,21.74
						c1.05,0.615,1.04,1.631-0.024,2.261l-2.087,1.235c-1.064,0.63-2.781,0.644-3.831,0.026l-36.93-21.742
						c-1.05-0.62-1.035-1.63,0.031-2.26L1275.303,1515.994L1275.303,1515.994z"/>
					<path fill="#7EC0FF" d="M1339.28,1475.824c1.065-0.63,2.781-0.64,3.831-0.02l36.929,21.74c1.05,0.615,1.04,1.63-0.024,2.26
						l-2.087,1.236c-1.065,0.63-2.781,0.64-3.831,0.024l-36.93-21.74c-1.049-0.62-1.035-1.63,0.031-2.265L1339.28,1475.824
						L1339.28,1475.824z"/>
					<path fill="#7EC0FF" d="M1310.802,1379.599c1.066-0.629,2.782-0.645,3.831-0.024l70.308,41.376
						c1.05,0.62,1.04,1.635-0.026,2.265l-2.085,1.235c-1.065,0.63-2.781,0.64-3.831,0.026l-70.308-41.382
						c-1.05-0.615-1.035-1.629,0.026-2.26L1310.802,1379.599L1310.802,1379.599z"/>
					<path fill="#7EC0FF" d="M1194.882,1451.892c1.064-0.63,2.781-0.64,3.831-0.02l70.314,41.376
						c1.045,0.62,1.035,1.631-0.031,2.265l-2.085,1.235c-1.06,0.63-2.781,0.642-3.831,0.021l-70.308-41.376
						c-1.05-0.62-1.035-1.631,0.03-2.265L1194.882,1451.892L1194.882,1451.892z"/>
					<path fill="#7EC0FF" d="M1251.227,1409.761c1.066-0.63,2.781-0.644,3.831-0.024l70.308,41.376
						c1.05,0.619,1.035,1.635-0.024,2.265l-2.087,1.235c-1.065,0.63-2.781,0.64-3.831,0.025l-70.308-41.381
						c-1.05-0.615-1.041-1.629,0.025-2.26L1251.227,1409.761L1251.227,1409.761z"/>
					<path fill="#7EC0FF" d="M1288.052,1380.815c1.064-0.63,2.779-0.646,3.829-0.026l94.245,55.469
						c1.049,0.616,1.033,1.631-0.025,2.261l-2.087,1.235c-1.064,0.63-2.781,0.64-3.831,0.026l-94.244-55.469
						c-1.05-0.616-1.035-1.631,0.026-2.261L1288.052,1380.815L1288.052,1380.815z"/>
					<path fill="#7EC0FF" d="M1172.256,1452.778c1.066-0.63,2.781-0.64,3.831-0.02l94.244,55.464c1.05,0.62,1.035,1.629-0.024,2.26
						l-2.086,1.236c-1.065,0.634-2.781,0.645-3.831,0.024l-94.244-55.464c-1.05-0.62-1.04-1.635,0.026-2.265L1172.256,1452.778
						L1172.256,1452.778z"/>
					<path fill="#7EC0FF" d="M1234.903,1414.409c1.064-0.636,2.78-0.646,3.831-0.026l94.244,55.464
						c1.05,0.62,1.04,1.631-0.026,2.265l-2.085,1.236c-1.066,0.63-2.781,0.64-3.831,0.02l-94.244-55.465
						c-1.05-0.62-1.035-1.631,0.024-2.261L1234.903,1414.409L1234.903,1414.409z"/>
				</g>
			</g>
		</g>
		<path fill="#AED6FF" d="M1375.969,1341.274l6.401,3.696c-4.491,5.456-2.832,12.188,4.986,16.704l85.542,49.387l0.089,0.055
			l0.041,0.02c7.821,4.451,19.404,5.382,28.802,2.802l6.401,3.695c-13.019,4.443-30.068,3.462-41.305-2.945l-0.155-0.089
			l-85.542-49.388C1369.997,1358.724,1368.242,1348.827,1375.969,1341.274L1375.969,1341.274z"/>
		<path fill="#FFFFFF" d="M1466.921,1409.478l-0.155-0.091l-85.536-49.382c-13.314-7.692-13.314-20.171,0-27.858
			c1.689-0.975,4.435-0.975,6.126,0c1.69,0.981,1.69,2.562,0,3.541c-9.933,5.731-9.933,15.044,0,20.775l85.542,49.388l0.089,0.055
			l0.03,0.014c0.006,0,0.006,0.006,0.011,0.006c9.947,5.656,25.966,5.631,35.853-0.075c1.691-0.981,4.437-0.981,6.127,0
			c1.691,0.975,1.691,2.561,0,3.536C1501.751,1417.044,1480.251,1417.074,1466.921,1409.478L1466.921,1409.478z"/>
	</g>
	<path fill="#F1F2F2" d="M154.461,1622.776c-5.093-2.941-8.229-8.377-8.227-14.259c0-5.882,3.139-11.318,8.232-14.259
		c167.258-96.575,1127.693-651.107,1127.693-651.107l307.269,177.491c0,0-984.739,568.27-1133.92,654.363
		c-11.659,6.726-26.022,6.721-37.675-0.016C364.775,1744.328,214.053,1657.22,154.461,1622.776z"/>
	<path fill="#F1F2F2" d="M1104.839,1060.347c-2.641-1.525-4.267-4.346-4.267-7.396c0-3.046,1.626-5.866,4.267-7.392
		c37.274-21.526,144.788-83.616,171.338-98.951c3.702-2.14,8.262-2.14,11.968,0c40.266,23.262,272.114,157.176,335.427,193.744
		c3.296,1.901,5.321,5.416,5.321,9.217c-0.006,3.801-2.041,7.312-5.331,9.213c-38.976,22.436-137.79,79.325-166.548,95.879
		c-4.932,2.842-10.999,2.836-15.924-0.01C1394.988,1228.011,1162.218,1093.501,1104.839,1060.347L1104.839,1060.347z"/>
	<g id="computer-screen">
		<g>
			<path fill="#C077FF" d="M1349.912,56.671c5.211-3.006,11.867-2.886,18.72,1.075l321.257,194.195
				c13.639,7.882,22.901,28.007,20.676,44.921l-105.342,800.14c-1.111,8.417-4.857,14.463-10.024,17.44v0.004l0,0
				c-0.454,0.26-0.92,0.5-1.395,0.71l-45.591,25.208l0.785-21.956l-311.253-188.413c-13.634-7.882-22.897-28.008-20.672-44.921
				L1320.89,96.526l-16.671-14.604L1349.912,56.671L1349.912,56.671L1349.912,56.671z"/>
			<path fill="#D89BFF" d="M1605.223,1097.002c-1.106,8.417-4.851,14.459-10.018,17.44h-0.006c-0.454,0.26-0.914,0.5-1.39,0.71
				l-42.735,23.746l-2.846,1.116l103.416-800.29l56.729-26.226l-103.151,783.5V1097.002z"/>
			<path fill="#F2DEFF" d="M1663.573,322.779c2.225-16.909-7.037-37.039-20.676-44.921L1321.64,83.663
				c-13.639-7.883-26.512-0.545-28.742,16.369l-105.337,800.14c-2.231,16.915,7.031,37.039,20.669,44.922l321.259,194.194
				c13.637,7.882,26.516,0.545,28.742-16.364L1663.573,322.779L1663.573,322.779z"/>
			<path fill="#6A17FF" d="M1654.155,325.194c2.204-16.764-6.972-36.715-20.491-44.526L1320.425,91.11
				c-13.514-7.812-26.278-0.545-28.488,16.224l-104.413,793.108c-2.21,16.764,6.972,36.715,20.491,44.527l313.235,189.557
				c13.518,7.812,26.282,0.541,28.488-16.219L1654.155,325.194z"/>
			<path fill="#38009C" d="M1518.89,241.523c0.48-3.656-1.52-8.002-4.467-9.707l-105.356-63.756c-2.941-1.7-5.726-0.116-6.205,3.536
				l-0.255,1.96c-0.485,3.656,1.52,8.002,4.46,9.703l105.358,63.756c2.945,1.705,5.727,0.12,6.211-3.531L1518.89,241.523z"/>
		</g>
	</g>
	<g id="computer-screen1">
	</g>
	<path fill="#5009CF" d="M1289.477,126.034l-101.953,774.408c-2.21,16.764,6.972,36.715,20.491,44.527l303.807,183.851
		l101.051-775.273c2.206-16.915-7.087-37.04-20.731-44.906l-49.452-29.833l-4.887,37.504c-2.204,16.915-15.074,24.256-28.722,16.384
		L1335.383,227.9c-13.649-7.868-22.935-27.993-20.73-44.907l5.044-38.725L1289.477,126.034L1289.477,126.034z"/>
	<g id="computer-screen2">
		<g>
			<path fill="#C5E1F6" d="M1505.986,300.783l49.448,29.837c13.649,7.868,22.936,27.993,20.731,44.907l-104.298,800.18
				c-1.795,13.773-10.658,21.195-21.255,19.229l0.589-17.145c-103.835-62.73-207.682-125.442-311.504-188.197
				c-14.599-8.827-22.911-28.173-20.73-44.911c34.214-262.868,68.523-525.725,102.786-788.588l-13.932-12.182
				c1.16-2.421-4.391-1.536-2.661-3.131l10.712-4.812c5.162-2.981,11.75-2.895,18.531,0.966l48.588,29.312l-5.047,38.725
				c-2.206,16.915,7.087,37.04,20.731,44.907l173.704,104.797c13.643,7.872,26.511,0.53,28.716-16.384l3.262-24.991l-10.473-6.317
				L1505.986,300.783z"/>
			<path fill="#B2D7F3" d="M1471.864,1175.712c-1.096,8.418-4.837,14.465-9.998,17.445l-0.004,0.004
				c-0.451,0.261-0.917,0.495-1.391,0.711l-7.848,4.025l-2.846,1.116l104.577-817.229l21.841-6.512L1471.864,1175.712
				L1471.864,1175.712z"/>
			<path fill="#82BEEB" d="M1493.879,306.985l-4.893,37.509c-2.2,16.915-15.068,24.256-28.716,16.384l-173.704-104.796
				c-13.644-7.873-22.935-27.993-20.73-44.907l5.05-38.725l-49.082-29.608c-13.644-7.872-26.516-0.53-28.718,16.384
				l-104.302,800.185c-2.206,16.915,7.087,37.034,20.73,44.901l321.523,193.984c13.647,7.868,26.517,0.525,28.722-16.389
				l104.301-800.18c2.201-16.915-7.087-37.04-20.73-44.907L1493.879,306.985L1493.879,306.985z"/>
			<path fill="#63A9DD" d="M1182.849,237.822l293.145,169.074c5.462,3.15,9.172,11.197,8.292,17.964
				c0,0-89.042,681.16-97.734,746.006l-277.026-166.552c-13.644-7.868-22.936-27.987-20.731-44.901L1182.849,237.822
				L1182.849,237.822z"/>
		</g>
	</g>
	<g>
		<path fill="#F1F2F2" d="M1928.26,1302.57l-66.101-38.31l-174.475,100.721l66.482,38.185L1928.26,1302.57z"/>
		<path fill="#F1F2F2" d="M1856.921,1261.379l-66.101-38.31l-174.475,100.726l66.483,38.18L1856.921,1261.379z"/>
		<path fill="#F1F2F2" d="M1786.504,1220.724l-66.102-38.31l-174.47,100.721l66.483,38.179L1786.504,1220.724z"/>
		<g>
			<path fill="#A10AFF" d="M1746.583,906.689v258.741l-166.031,95.849l0.034-258.727L1746.583,906.689L1746.583,906.689z"/>
			<path fill="#E2B779" d="M1589.343,1025.513l-39.14-22.426l-0.01,0.021l-5.081-2.937L1589.343,1025.513z"/>
			<path fill="#C077FF" d="M1622.862,1031.98l0.044,258.682l-54.024-31.113l-0.085-258.531L1622.862,1031.98L1622.862,1031.98z"/>
			<path fill="#6A17FF" d="M1793.121,933.651l-0.006,258.745l-170.294,98.311l0.036-258.727L1793.121,933.651z"/>
			<path fill="#F1F1F1" d="M1768.549,942.093l-32.028-18.636l-149.903,86.527l32.402,18.51L1768.549,942.093z"/>
			<path fill="#D89BFF" d="M1746.583,906.684l-7.181-4.162l-170.604,98.48l7.562,4.031L1746.583,906.684z"/>
			<path fill="#D89BFF" d="M1793.121,933.651l-7.868-4.556l-164.532,94.968l8.248,4.427L1793.121,933.651L1793.121,933.651z"/>
			<path fill="#D89BFF" d="M1630.824,1027.319l-53.669-31.083l-8.312,4.802l54.044,30.952L1630.824,1027.319z"/>
		</g>
		<g>
			<path fill="#A10AFF" d="M1812.65,944.788l-0.004,258.746l-166.027,95.845l0.034-258.727L1812.65,944.788L1812.65,944.788z"/>
			<path fill="#E2B779" d="M1655.42,1063.619l-39.14-22.426l-0.01,0.014l-5.076-2.929L1655.42,1063.619L1655.42,1063.619z"/>
			<path fill="#C077FF" d="M1688.928,1070.07l0.04,258.682l-54.018-31.114l-0.085-258.531L1688.928,1070.07L1688.928,1070.07z"/>
			<path fill="#6A17FF" d="M1859.198,971.739l-0.006,258.747l-170.294,98.311l0.036-258.727L1859.198,971.739z"/>
			<path fill="#F1F1F1" d="M1834.626,980.187l-32.028-18.641l-149.903,86.527l32.403,18.51L1834.626,980.187L1834.626,980.187z"/>
			<path fill="#D89BFF" d="M1812.65,944.773l-7.181-4.162l-170.604,98.481l7.562,4.031L1812.65,944.773L1812.65,944.773z"/>
			<path fill="#D89BFF" d="M1859.182,971.739l-7.868-4.556l-164.527,94.969l8.242,4.427L1859.182,971.739z"/>
			<path fill="#D89BFF" d="M1696.901,1065.424l-53.663-31.084l-8.317,4.802l54.048,30.953l7.937-4.671H1696.901z"/>
		</g>
		<g>
			<path fill="#A10AFF" d="M1881.713,984.599l-0.004,258.741l-166.028,95.849l0.036-258.727L1881.713,984.599L1881.713,984.599z"/>
			<path fill="#C077FF" d="M1757.991,1109.88l0.04,258.682l-54.018-31.114l-0.085-258.531L1757.991,1109.88z"/>
			<path fill="#6A17FF" d="M1928.26,1011.549v258.747l-170.298,98.311l0.034-258.727L1928.26,1011.549L1928.26,1011.549z"/>
			<path fill="#F1F1F1" d="M1903.689,1019.997l-32.024-18.64l-149.909,86.527l32.408,18.51L1903.689,1019.997z"/>
			<path fill="#D89BFF" d="M1881.713,984.599l-7.182-4.162l-170.603,98.479l7.561,4.031L1881.713,984.599z"/>
			<path fill="#D89BFF" d="M1928.25,1011.549l-7.866-4.556l-164.532,94.969l8.242,4.431L1928.25,1011.549L1928.25,1011.549z"/>
			<path fill="#D89BFF" d="M1765.968,1105.235l-53.669-31.084l-8.317,4.802l54.049,30.953L1765.968,1105.235z"/>
		</g>
	</g>
	<path fill="#D7EBFF" d="M1121.003,248.329c2.081-1.2,4.746-1.155,7.487,0.425l312.129,179.992
		c5.458,3.151,9.173,11.198,8.293,17.964l-77.605,595.378c-0.44,3.371-1.936,5.785-4.001,6.982l0,0l0,0
		c-0.184,0.105-0.37,0.199-0.559,0.284l-9.524,4.106l0.305-8.782l-308.124-177.681c-5.456-3.151-9.172-11.198-8.292-17.965
		l77-590.741l-6.677-5.837L1121.003,248.329L1121.003,248.329L1121.003,248.329z"/>
	<path fill="none" d="M1121.003,248.329c2.081-1.2,4.746-1.155,7.487,0.425l312.129,179.992c5.458,3.151,9.173,11.198,8.293,17.964
		l-77.605,595.378c-0.44,3.371-1.936,5.785-4.001,6.982l0,0l0,0c-0.184,0.105-0.37,0.199-0.559,0.284l-9.524,4.106l0.305-8.782
		l-308.124-177.681c-5.456-3.151-9.172-11.198-8.292-17.965l77-590.741l-6.677-5.837L1121.003,248.329L1121.003,248.329
		L1121.003,248.329z"/>
	<g>
		<path fill="#B5DAFF" d="M1449.042,448.051l-13.649,5.367l-76.839,600.669l13.653-5.366L1449.042,448.051z"/>
	</g>
	<path fill="#F2F9FF" d="M1029.21,857.891c-0.04-0.95-0.006-1.891,0.115-2.811l77.604-595.382c0.881-6.767,6.027-9.703,11.488-6.557
		l312.1,180.011c5.456,3.145,9.172,11.197,8.292,17.959l-65.357,501.424l0.121,0.07l-19.1,148.643l0.386,0.646l0,0l-0.386-0.64
		c-5.252,48.077-45.381,107.223-89.568,131.988c-44.182,24.762-75.794,5.832-70.548-42.244l-10.313,5.781
		c-1.019,9.348-0.809,17.714,0.5,25.032l-253.869-172.02c-49.018,26.576-83.859,5.086-78-48.592l10.317-5.782
		c-5.251,48.082,26.362,67.012,70.548,42.246c44.181-24.767,84.316-83.911,89.563-131.989l1.4,2.336l-1.4-2.341L1029.21,857.891
		L1029.21,857.891z"/>
	<g transform="matrix(0.866025,0.5,-0.181579,1.04987,-3756.92,6877.2)">
		<g enable-background="new    ">
			<path fill="#BADDFF" d="M3960.943-7991.684c-1.635,0.818-4.905,1.635-9.095,1.635c-9.709,0-17.017-6.131-17.017-17.424
				c0-10.782,7.308-18.089,17.988-18.089c4.293,0,7,0.92,8.177,1.533l-1.073,3.628c-1.686-0.817-4.088-1.431-6.95-1.431
				c-8.075,0-13.441,5.162-13.44,14.205c0,8.432,4.854,13.848,13.236,13.848c2.708,0,5.468-0.562,7.256-1.431L3960.943-7991.684z"/>
		</g>
		<g enable-background="new    ">
			<path fill="#BADDFF" d="M4007.177-8008.142c0,11.855-7.205,18.14-15.995,18.14c-9.096,0-15.483-7.051-15.483-17.476
				c0-10.935,6.795-18.088,15.994-18.088C4001.097-8025.566,4007.177-8018.361,4007.177-8008.142z M3980.451-8007.58
				c0,7.358,3.986,13.95,10.987,13.95c7.051,0,11.038-6.489,11.037-14.307c0-6.847-3.576-14.001-10.986-14.001
				C3984.131-8021.938,3980.451-8015.142,3980.451-8007.58z"/>
		</g>
		<g enable-background="new    ">
			<path fill="#BADDFF" d="M4027.998-7990.56l0-34.441h4.854l11.038,17.425c2.554,4.037,4.548,7.665,6.184,11.19l0.102-0.052
				c-0.408-4.599-0.511-8.789-0.51-14.154l0-14.41h4.19l0,34.441l-4.497,0l-10.935-17.476c-2.403-3.832-4.701-7.767-6.44-11.497
				l-0.153,0.051c0.254,4.343,0.358,8.482,0.358,14.205l-0.001,14.716L4027.998-7990.56z"/>
		</g>
		<g enable-background="new    ">
			<path fill="#BADDFF" d="M4081.018-8021.223h-10.476l0-3.781l25.499,0v3.782h-10.526l0,30.659h-4.497L4081.018-8021.223z"/>
		</g>
		<g enable-background="new    ">
			<path fill="#BADDFF" d="M4109.683-8024.544c2.249-0.46,5.468-0.715,8.534-0.715c4.753,0,7.819,0.868,9.965,2.81
				c1.738,1.533,2.708,3.884,2.708,6.542c0.001,4.547-2.861,7.563-6.49,8.789l0,0.153c2.658,0.919,4.242,3.373,5.06,6.949
				c1.124,4.803,1.941,8.125,2.657,9.453h-4.6c-0.561-0.971-1.328-3.935-2.299-8.227c-1.023-4.752-2.862-6.541-6.899-6.694l-4.191,0
				v14.921h-4.445L4109.683-8024.544z M4114.127-8008.857h4.549c4.751,0,7.769-2.606,7.768-6.541c0-4.446-3.22-6.387-7.921-6.438
				c-2.146,0-3.68,0.204-4.396,0.409L4114.127-8008.857z"/>
		</g>
		<g enable-background="new    ">
			<path fill="#BADDFF" d="M4157.185-8001.396l-3.577,10.833h-4.6l11.701-34.439l5.367,0l11.754,34.44h-4.752l-3.681-10.833
				L4157.185-8001.396z M4168.478-8004.871l-3.373-9.912c-0.767-2.249-1.278-4.293-1.788-6.286h-0.103
				c-0.511,2.044-1.073,4.139-1.738,6.234l-3.372,9.964H4168.478z"/>
		</g>
		<g enable-background="new    ">
			<path fill="#BADDFF" d="M4221.274-7991.688c-1.635,0.818-4.905,1.635-9.096,1.635c-9.71,0-17.018-6.132-17.017-17.425
				c0-10.781,7.307-18.088,17.986-18.089c4.293,0,7.002,0.92,8.178,1.533l-1.074,3.628c-1.687-0.818-4.088-1.431-6.951-1.431
				c-8.074,0-13.439,5.16-13.439,14.205c0,8.432,4.854,13.848,13.235,13.848c2.708,0,5.468-0.562,7.257-1.431L4221.274-7991.688z"/>
		</g>
		<g enable-background="new    ">
			<path fill="#BADDFF" d="M4244.624-8021.22h-10.476l0-3.781h25.5v3.781l-10.526,0l0,30.66l-4.497,0L4244.624-8021.22z"/>
		</g>
	</g>
	<path fill="#B0D8FF" d="M1144.995,728.588c0.244-2.011-0.854-4.396-2.461-5.316l-29.282-16.924c-1.6-0.926-3.101-0.04-3.346,1.971
		l-0.475,3.931c-0.245,2.01,0.855,4.396,2.456,5.321l29.282,16.92c1.607,0.925,3.101,0.04,3.347-1.971L1144.995,728.588z"/>
	<path fill="#B0D8FF" d="M1198.028,794.24c0.245-2.01-0.854-4.392-2.456-5.316l-84.256-48.438c-1.6-0.92-3.096-0.04-3.341,1.971
		l-0.48,3.931c-0.245,2.016,0.855,4.396,2.456,5.321l84.256,48.438c1.601,0.92,3.101,0.04,3.347-1.971L1198.028,794.24z"/>
	<path fill="#B0D8FF" d="M1213.172,673.504c0.244-2.01-0.856-4.391-2.456-5.316l-84.257-48.438c-1.6-0.925-3.101-0.045-3.346,1.971
		l-0.475,3.931c-0.245,2.01,0.855,4.396,2.456,5.316l84.257,48.438c1.601,0.925,3.1,0.045,3.345-1.966L1213.172,673.504z"/>
	<path fill="#B0D8FF" d="M1289.906,847.323c0.246-2.01-0.854-4.391-2.455-5.316l-74.819-43.196c-1.6-0.925-3.096-0.04-3.34,1.971
		l-0.481,3.931c-0.245,2.01,0.856,4.396,2.457,5.316l74.818,43.196c1.601,0.925,3.101,0.045,3.341-1.966L1289.906,847.323z"/>
	<path fill="#B0D8FF" d="M1306.265,727.368c0.245-2.006-0.854-4.392-2.456-5.317l-74.819-43.196c-1.6-0.92-3.101-0.04-3.346,1.971
		l-0.475,3.936c-0.246,2.01,0.856,4.392,2.455,5.316l74.819,43.196c1.601,0.92,3.097,0.041,3.341-1.97L1306.265,727.368z"/>
	<path fill="#B0D8FF" d="M1215.863,591.743c0.244-2.01-0.856-4.391-2.455-5.316l-77.351-44.642c-1.6-0.925-3.101-0.045-3.341,1.971
		l-0.48,3.931c-0.245,2.01,0.856,4.396,2.455,5.316l77.351,44.647c1.6,0.92,3.1,0.04,3.345-1.971L1215.863,591.743z"/>
	<path fill="#B0D8FF" d="M1188.285,816.465c0.246-2.011-0.86-4.396-2.461-5.316l-77.349-44.642c-1.6-0.926-3.096-0.045-3.34,1.966
		l-0.48,3.936c-0.245,2.01,0.855,4.391,2.456,5.316l77.35,44.642c1.605,0.925,3.101,0.04,3.345-1.971L1188.285,816.465z"/>
	<path fill="#B0D8FF" d="M1203.245,695.609c0.238-2.01-0.86-4.396-2.461-5.317l-77.35-44.641c-1.6-0.925-3.101-0.045-3.345,1.965
		l-0.476,3.937c-0.245,2.011,0.855,4.391,2.456,5.316l77.35,44.641c1.601,0.925,3.1,0.041,3.346-1.97L1203.245,695.609z"/>
	<path fill="#B0D8FF" d="M1190.877,602.206c0.244-2.011-0.856-4.396-2.455-5.321l-56.335-32.524c-1.6-0.925-3.095-0.04-3.341,1.971
		l-0.48,3.931c-0.245,2.01,0.855,4.396,2.456,5.316l56.335,32.528c1.6,0.925,3.1,0.04,3.345-1.97L1190.877,602.206z"/>
	<path fill="#B0D8FF" d="M1174.997,703.972c0.244-2.011-0.854-4.392-2.456-5.317l-56.334-32.523c-1.6-0.925-3.096-0.045-3.341,1.966
		l-0.48,3.936c-0.245,2.01,0.855,4.391,2.456,5.316l56.334,32.523c1.601,0.926,3.096,0.046,3.341-1.965L1174.997,703.972
		L1174.997,703.972z"/>
	<path fill="#B0D8FF" d="M1341.159,664.321c0.245-2.011-0.854-4.391-2.456-5.316l-107.227-61.936c-1.601-0.92-3.1-0.04-3.345,1.971
		l-0.481,3.931c-0.244,2.015,0.86,4.396,2.461,5.321l107.227,61.931c1.601,0.925,3.101,0.045,3.347-1.966L1341.159,664.321z"/>
	<path fill="#B0D8FF" d="M1310.946,887.348c0.245-2.011-0.854-4.391-2.456-5.316l-107.227-61.936c-1.601-0.926-3.1-0.04-3.345,1.971
		l-0.475,3.931c-0.244,2.011,0.854,4.396,2.456,5.321l107.227,61.931c1.601,0.925,3.101,0.045,3.347-1.966L1310.946,887.348z"/>
	<path fill="#B0D8FF" d="M1334.008,771.694c0.244-2.011-0.856-4.396-2.456-5.316l-107.233-61.936
		c-1.601-0.925-3.101-0.04-3.341,1.966l-0.48,3.936c-0.245,2.01,0.854,4.396,2.456,5.316l107.233,61.936
		c1.599,0.925,3.095,0.04,3.341-1.966L1334.008,771.694z"/>
	<path fill="#B0D8FF" d="M1350.047,694.169c0.244-2.01-0.854-4.391-2.455-5.316l-143.736-83.016
		c-1.601-0.926-3.103-0.045-3.347,1.966l-0.476,3.936c-0.245,2.011,0.856,4.391,2.457,5.316l143.736,83.021
		c1.601,0.92,3.1,0.04,3.341-1.971L1350.047,694.169z"/>
	<path fill="#B0D8FF" d="M1334.153,795.94c0.25-2.011-0.854-4.391-2.456-5.316l-143.737-83.021c-1.6-0.925-3.096-0.04-3.34,1.971
		l-0.481,3.931c-0.245,2.016,0.856,4.396,2.457,5.321l143.736,83.016c1.601,0.925,3.1,0.045,3.345-1.971L1334.153,795.94z"/>
	<path fill="#2C2982" d="M1438.8,451.112c0.885-6.762-2.83-14.814-8.286-17.959l-312.106-180.011
		c-5.457-3.146-10.607-0.21-11.488,6.557l-6.361,48.837l331.88,191.414L1438.8,451.112L1438.8,451.112z"/>
	<path fill="#FD6026" d="M1378.184,428.566c4.426,2.556,7.547,8.507,6.956,13.284c-0.585,4.771-4.657,6.572-9.082,4.016
		c-4.426-2.556-7.547-8.508-6.961-13.279C1369.687,427.811,1373.753,426.01,1378.184,428.566z"/>
	<path fill="#88BE00" d="M1351.143,412.952c4.426,2.556,7.547,8.507,6.956,13.283c-0.585,4.771-4.657,6.572-9.083,4.016
		c-4.426-2.556-7.547-8.507-6.962-13.278C1342.645,412.197,1346.716,410.396,1351.143,412.952z"/>
	<path fill="#FF1056" d="M1405.442,444.305c4.431,2.556,7.545,8.507,6.961,13.278c-0.585,4.776-4.656,6.577-9.081,4.021
		c-4.431-2.556-7.548-8.507-6.963-13.283C1396.944,443.55,1401.015,441.75,1405.442,444.305z"/>
	<g>
		<path fill="#6DB8FF" d="M1048.4,617.514c14.824,2.866,11.918,59.241,17.78,100.406c0,0,63.326,82.231,55.784,83.126
			c-40.625,24.752-100.726-106.767-97.225-139.645c1.711-16.109,1.766-26.907,12.388-38.705c2.016-2.24,5.042-3.35,7.782-4.611
			C1045.979,617.594,1047.219,617.549,1048.4,617.514L1048.4,617.514z"/>
		<path fill="#000847" d="M1110.86,1103.489c0,0,13.294,3.066,9.868,11.187c-3.411,8.167-23.982,26.437-26.107,31.604
			c-2.17,5.127-14.339,23.766-18.605,22.065c-4.306-1.726-31.772,4.286-19.415-36.98
			C1062.623,1111.255,1092.041,1102.613,1110.86,1103.489z"/>
		<path fill="#000847" d="M1124.959,1191.296c0,0,9.518,15.254,26.487,10.103c16.973-5.167,8.882-12.408,45.346-24.287
			c36.54-11.909,26.697-34.955,23.651-38.155c-2.985-3.14-28.076,3.581-36.099,6.122c-8.002,2.531-23.087,7.487-23.087,7.487
			l-36.298,12.394V1191.296L1124.959,1191.296z"/>
		<path fill="#000F71" d="M1057.262,823.137c0,0,4.171,143.891,4.171,157.575c0,13.679-14.029,103.611-4.836,150.648
			c0,0,20.835,22.03,44.241-4.552c0,0,2.6-46.852,6.127-91.567c2.455-31.168,5.361-61.297,8.147-73.794
			c6.767-30.448,4.506-123.617,4.506-123.617L1057.262,823.137z"/>
		<path fill="#000F71" d="M1103.734,840.401c0,0,23.721,118.194,22.506,196.374c0,0-6.322,114.179-2.696,136.436
			c0,0,49.793,12.367,54.8-11.084c0,0-1.292-135.87,0-164.261c1.209-28.397,4.15-107.578-7.097-153.275
			C1160.038,798.906,1103.734,840.401,1103.734,840.401L1103.734,840.401z"/>
		<path fill="#000847" d="M1123.534,1173.216c-7.702-66.156,2.691-136.435,2.691-136.435
			c4.206-128.853-52.384-107.887-50.153-183.007l60.17,16.58c0,0,22.14,58.195,18.759,145.472
			c-2.62,67.553-3.7,133.979-4.065,160.636C1137.187,1176.577,1123.534,1173.216,1123.534,1173.216L1123.534,1173.216z"/>
		<path fill="#000847" d="M1056.597,1131.365c-8.597-65.336,4.836-135.424,4.836-149.107c0-13.044-18.354-92.024-4.176-158.231
			l26.727,20.565c0,0,8.477,86.833,0,136.291c-7.727,45.007-2.761,132.618-6.522,157.769
			C1062.684,1138.652,1056.597,1131.365,1056.597,1131.365L1056.597,1131.365z"/>
		<path fill="#B1D9FF" d="M1044.269,616.969c0,0-22.841,11.983-8.977,50.948c13.859,38.99,18.24,142.787,15.354,152.834
			c0,0-3.236,32.369,70.998,50.153c0,0,56.965,5.086,52.815-35.919c-8.797-86.878-18.641-103.282-17.42-118.691
			c1.255-15.429,9.872-46.357-29.008-66.357C1089.145,629.927,1068.845,614.973,1044.269,616.969L1044.269,616.969z"/>
		<path fill="#6DB8FF" d="M1157.038,716.295c-0.331,4.161,2.604,10.737,4.786,20.38c7.767,34.379,10.337,64.462,12.848,102.467
			c1.415,21.371-22.416,30.583-39.68,31.698c-5.871-17.739,20.806-89.758,0.825-126.417c-8.377-15.375-30.882-73.324,5.851-45.332
			C1167.47,718.75,1158.128,702.606,1157.038,716.295L1157.038,716.295z"/>
		<path fill="#EFB185" d="M1071.2,597.039c0,0,2.851,20.465-3.926,33.419c-6.156,11.773,42.346,21.435,43.281,10.618
			c0.074-1.145-9.518-18.62,1.72-39.766C1118.157,590.252,1071.2,597.039,1071.2,597.039L1071.2,597.039z"/>
		<path fill="#DD9569" d="M1067.509,631.173c5.032-9.667,4.776-23.391,4.276-29.827l35.624,16.789l-0.01,0.105
			c-1.285,0.32-24.957,6.842-29.777,24.061C1070.301,639.465,1065.284,635.464,1067.509,631.173z"/>
		<path fill="#EFB185" d="M1119.638,541.85c0,0,8.342,19.52,7.097,36.514c-0.38,5.181,1.396,6.682,2.896,10.452
			c3.041,7.658-1.49,5.521-2.216,11.338c-0.435,3.471,1.405,16.56-4.131,20.281c-6.496,4.366-17.1,7.767-32.924,2.355
			c-19.135-6.586-39.695-32.338-32.063-56.029C1066.014,543.07,1090.646,523.245,1119.638,541.85L1119.638,541.85z"/>
		<path fill="#E6A376" d="M1059.667,592.178c7.202-21.295,25.622-47.067,25.422-48.402c-0.12-0.825,6.087-4.886,13.138-9.222
			c6.712,0.235,13.884,2.475,21.406,7.297c0,0,2.246,5.196,4.211,12.598c-4.431,5.141-13.539,11.082-14.883,15.424
			c-3.041,10.208-0.876,25.517,2.25,32.254c3.141,6.716-8.843,16.884-6.187,22.846l0.1,0.815c-4.361-0.24-9.282-1.14-14.764-2.995
			C1078.087,618.559,1065.344,606.511,1059.667,592.178L1059.667,592.178z"/>
		<path fill="#952500" d="M1121.333,542.755c0,0,2.511,8.828-9.617,16.169c-9.513,5.787-8.682,21.175-8.137,24.156
			c0.52,2.981,3.726,16.524,2.561,18.29c-2.26,3.371-10.297-6.906-13.984-6.132c-9.413,2.01-5.557,10.758,3.22,19.835
			c9.322,9.652-14.634,14.149-25.926,6.261c-6.027-4.181-8.208-6.716-16.299-21.995c-11.723-22.276-12.823-49.313,13.493-64.276
			C1092.941,520.125,1113.241,531.387,1121.333,542.755z"/>
		<path fill="#B32D00" d="M1091.76,581.83c-22.221,9.588-44.736,9.852-46.512,3.046c-3.901-14.974-1.49-33.093,10.788-44.256
			c3.276-2.976,7.077-5.461,11.133-7.242c8.307-3.656,18.515-5.777,27.702-5.606c13.708,0.26,24.766,6.677,32.398,17.99
			c3.276,4.861,5.257,10.082,0.505,14.419C1120.123,567.161,1110.255,573.848,1091.76,581.83L1091.76,581.83z"/>
		<path fill="#B1D9FF" d="M1107.715,634.744l15.984,12.948c0,0-48.712,14.984-63.497-8.717c-2.11-3.371,0.136-14.799,8.612-17.079
			C1068.814,621.896,1070.87,641.381,1107.715,634.744L1107.715,634.744z"/>
		<g id="pen">
			<path fill="#111A5A" d="M1319.529,638.3c0,0,7.868,5.336,7.652,6.147c-0.216,0.805-9.808,1.911-9.808,1.911L1319.529,638.3z"/>
			<g>
				<path fill="#111A5A" d="M1211.736,612.078l107.498,26.077v0.005c0.591,0.205,1.08,0.75,1.346,1.595
					c0.575,1.846-0.121,4.441-1.556,5.797c-0.66,0.625-1.361,0.875-1.98,0.785l0,0l0,0c-0.111-0.015-0.216-0.04-0.315-0.075
					l-107.188-25.997L1211.736,612.078z"/>
				<path fill="#111A5A" d="M1208.035,618.63c-0.58-1.841,0.121-4.436,1.551-5.792c1.433-1.355,3.07-0.96,3.645,0.88
					c0.575,1.846-0.119,4.441-1.556,5.797C1210.245,620.87,1208.61,620.475,1208.035,618.63z"/>
				<path fill="#111A5A" d="M1210.996,612.903l0.121,0.03v0.005c0.454,0.16,0.829,0.576,1.035,1.231
					c0.444,1.415-0.089,3.411-1.195,4.456c-0.505,0.475-1.046,0.67-1.526,0.605l0,0l0,0c-0.079-0.015-0.159-0.035-0.24-0.06
					l-2.57-0.615l1.686-6.296L1210.996,612.903L1210.996,612.903z"/>
				<path fill="#111A5A" d="M1205.465,617.294c-0.44-1.415,0.091-3.411,1.195-4.456c1.1-1.04,2.356-0.735,2.8,0.681
					c0.446,1.42-0.089,3.416-1.195,4.456C1207.165,619.014,1205.911,618.715,1205.465,617.294z"/>
			</g>
		</g>
		<path fill="#EFB185" d="M1127.615,662.005c13.243-7.257,44.572,31.673,75.343,59.686l49.709-60.696
			c1.076-4.756,3.14-14.679,3.015-20.15c-0.199-7.367,4.391-12.068,5.178-13.299c7.21-11.353,11.923-13.253,21.796-5.651
			c9.376,7.222,5.851,9.922,12.468,20.405c1.595,2.526-2.957,10.213-5.448,13.023c-2.666,3.001-6.015,2.796-8.002,3.171
			c-3.029,5.477-7.65,9.342-11.588,13.473c-15.478,44.972-51.908,82.406-51.908,82.406v-0.05
			c-4.096,3.791-10.458,4.576-10.458,4.576c-30.018-6.122-59.016-35.199-79.811-65.501
			C1113.006,671.733,1127.615,662.005,1127.615,662.005L1127.615,662.005z"/>
		<path fill="#B1D9FF" d="M1123.839,658.675c25.456-16.685,50.028,32.943,80.8,60.955l48.023-58.635
			c1.081-4.756,23.587,6.376,18.335,11.883c-27.057,82.416-62.531,95.139-62.531,95.139c-30.017-6.116-57.04-31.708-83.516-57.2
			C1098.593,685.447,1123.839,658.675,1123.839,658.675L1123.839,658.675z"/>
	</g>
	<g>
		<path fill="#50AAFF" d="M851.274,999.667l7.601-77.179l335.955,197.205l-7.616,77.296l-0.17-0.101
			c-2.695,27.083,4.911,45.952,19.38,54.57l-335.955-197.212c0,0-10.673-4.961-16.434-21.229
			c-5.867-16.55-2.936-33.449-2.936-33.449L851.274,999.667z"/>
		<path fill="#ABD6FF" d="M874.455,1134.916c0.231-2.315-1.075-5.052-2.91-6.112l-98.408-56.779c-1.835-1.06-3.513-0.04-3.744,2.275
			l-0.45,4.531c-0.23,2.311,1.073,5.052,2.911,6.112l98.405,56.78c1.835,1.06,3.516,0.04,3.746-2.275L874.455,1134.916z"/>
		<path fill="#ABD6FF" d="M812.544,1128.196c0.23-2.316-1.075-5.057-2.911-6.112l-39.03-22.501c-1.835-1.056-3.514-0.04-3.744,2.275
			l-0.45,4.532c-0.231,2.315,1.075,5.05,2.91,6.112l39.027,22.495c1.838,1.06,3.516,0.04,3.747-2.271L812.544,1128.196z"/>
		<path fill="#ABD6FF" d="M968.504,1218.203c0.231-2.315-1.075-5.056-2.91-6.116l-139.881-80.686
			c-1.835-1.06-3.514-0.04-3.744,2.275l-0.45,4.532c-0.23,2.311,1.073,5.052,2.911,6.112l139.878,80.685
			c1.84,1.06,3.516,0.046,3.746-2.271L968.504,1218.203z"/>
		<path fill="#ABD6FF" d="M815.05,1159.673c0.231-2.315-1.072-5.056-2.91-6.112l-45.189-26.057c-1.838-1.06-3.516-0.04-3.746,2.277
			l-0.451,4.531c-0.23,2.311,1.075,5.052,2.911,6.112l45.191,26.057c1.836,1.055,3.514,0.034,3.744-2.275L815.05,1159.673z"/>
		<path fill="#ABD6FF" d="M960.762,1243.78c0.23-2.317-1.075-5.052-2.91-6.112l-128.008-73.849c-1.838-1.06-3.516-0.04-3.746,2.275
			l-0.448,4.532c-0.233,2.311,1.073,5.051,2.908,6.112l128.008,73.848c1.84,1.06,3.516,0.041,3.746-2.275L960.762,1243.78z"/>
		<path fill="#94C6F9" d="M151.777,1551.278l-3.768-2.174v10.577l0,0v0.036c0,4.045,2.161,7.787,5.664,9.812
			c52.413,30.258,225.791,130.358,271.072,156.5c7.562,4.366,16.877,4.366,24.436,0c75.357-43.506,479.663-277.461,479.663-277.461
			l-299.761-173.14c0,0-389.427,224.838-475.41,274.481C152.988,1550.302,152.353,1550.764,151.777,1551.278L151.777,1551.278z"/>
		<path fill="#E2F1FF" d="M628.422,1265.205c0.013-0.01,0.026-0.02,0.038-0.03c43.966-24.762,83.584-83.907,88.413-131.989
			l1.42,2.34l-1.42-2.345l5.794-57.185l0.008-0.091c2.558-25.492,13.783-53.744,30.11-79.425v-0.006
			c9.727-15.299,21.263-29.692,33.858-42.056h0.003c11.275-11.068,23.401-20.506,35.834-27.507l2.643-1.449
			c24.016-12.809,44.626-13.904,58.61-5.198l0.01-0.004l297.021,177.391c-13.414-7.993-37.394-5.042-60.611,6.576
			c-8.537,4.272-22.916,15.469-31.108,23.022l-0.01,0.004v0.006c-15.978,14.729-30.467,32.818-42.005,52.104l-0.005,0.004l0,0
			c-14.459,24.162-24.302,50.203-26.677,73.864l-0.01,0.091l-5.792,57.189l0.39,0.646l0,0l-0.39-0.64
			c-4.831,48.082-44.447,107.222-88.413,131.988c-4.921,2.772-9.767,4.687-14.483,5.912l-462.471,267.009
			c-7.56,4.366-16.872,4.366-24.434,0c-47.047-27.162-216.583-125.047-271.072-156.506c-3.503-2.02-5.664-5.761-5.664-9.806
			c0-4.051,2.161-7.788,5.664-9.813L628.422,1265.205L628.422,1265.205z"/>
		<path fill="#B5DAFF" d="M921.982,1442.441c0.03-0.075,0.06-0.125,0.09-0.141c43.861-25.327,84.317-83.907,89.563-131.989
			l1.4,2.336l-1.4-2.34l6.296-57.19l0.005-0.085c5.927-54.278,52.228-124.271,101.106-148.997
			c49.878-27.957,85.562-6.587,79.64,47.688l-4.36,39.595l-0.016,0.075c-5.026,47.787,26.532,66.543,70.592,41.846
			c44.182-24.767,84.317-83.907,89.565-131.989l1.399,2.336l-1.399-2.34l19.093-148.643l10.323-5.812l-19.095,148.629l-0.006,0.05
			c-5.926,54.279-51.228,121.04-101.105,148.999c-49.878,27.951-85.566,6.586-79.641-47.693l0.01-0.004l4.32-39.261
			c5.248-48.082-26.36-67.011-70.547-42.246c-44.176,24.756-84.302,83.881-89.562,131.959l-0.006,0.085l-6.296,57.179v0.045
			c-5.926,54.274-51.588,120.406-101.106,148.999c-0.015,0.004-0.03,0.004-0.04-0.006l-471.633,272.295v-10.398L921.982,1442.441
			L921.982,1442.441z"/>
	</g>
	<path fill="#D4EAFF" d="M734.274,1031.966l296.821,179.426c-5.641,14.194-9.397,28.397-10.747,41.84l-0.01,0.085l-5.797,57.19
		l0.395,0.645l0,0l-0.395-0.64c-0.275,2.776-0.67,5.587-1.175,8.417l-297.273-179.695c0.317-2.035,0.58-4.051,0.78-6.047l1.42,2.336
		l-1.42-2.346l5.794-57.185l0.008-0.089C724.089,1061.798,728.158,1046.855,734.274,1031.966L734.274,1031.966z"/>
	<g>
		<path fill="#FF98A6" d="M666.364,1027.974c3.561-2.055,8.112-1.976,12.793,0.73l366.706,221.672
			c9.323,5.382,15.649,19.14,14.128,30.698l-8.907,67.652c-0.755,5.751-3.316,9.883-6.851,11.918l0,0l0,0
			c-0.311,0.18-0.626,0.345-0.951,0.49l-22.95,13.313l0.535-15.008l-359.864-217.712c-9.32-5.386-15.652-19.144-14.129-30.702
			l7.862-59.725l-11.393-9.982L666.364,1027.974L666.364,1027.974L666.364,1027.974z"/>
		<path fill="#FFC5D3" d="M1051.09,1348.736c-0.755,5.751-3.321,9.883-6.852,11.918l0,0c-0.309,0.18-0.624,0.341-0.95,0.485
			l-21.001,12.317l-1.945,0.761l9.088-79.125l30.567-14.009L1051.09,1348.736L1051.09,1348.736z"/>
		<path fill="#FF0021" d="M1036.097,1294.887c1.52-11.562-4.812-25.316-14.129-30.702l-366.709-221.666
			c-9.32-5.387-18.12-0.376-19.642,11.182l-8.905,67.652c-1.523,11.558,4.807,25.317,14.126,30.704l366.706,221.666
			c9.322,5.386,18.125,0.376,19.645-11.188L1036.097,1294.887L1036.097,1294.887z"/>
		<g transform="matrix(0.866025,0.5,-0.181579,1.04987,-5105.66,9663.32)">
			<g enable-background="new    ">
				<path fill="#FFFFFF" d="M4515.535-10274.026c2.681,1.649,6.597,3.023,10.721,3.023c6.117,0,9.69-3.229,9.689-7.901
					c0-4.329-2.473-6.804-8.727-9.208c-7.561-2.68-12.233-6.597-12.233-13.124c0-7.216,5.98-12.575,14.983-12.575
					c4.742,0,8.178,1.1,10.24,2.268l-1.65,4.88c-1.512-0.826-4.605-2.199-8.797-2.199c-6.324-0.001-8.729,3.779-8.729,6.94
					c0,4.328,2.818,6.458,9.21,8.932c7.834,3.023,11.821,6.803,11.821,13.605c0,7.146-5.292,13.331-16.22,13.331
					c-4.467,0-9.346-1.307-11.82-2.956L4515.535-10274.026z"/>
			</g>
			<g enable-background="new    ">
				<path fill="#FFFFFF" d="M4581.374-10313.056l0,27.417c0,10.375,4.605,14.773,10.79,14.772
					c6.873,0.001,11.271-4.534,11.272-14.773l0-27.416h6.046l0,27.005c0,14.224-7.49,20.064-17.524,20.064
					c-9.484-0.001-16.632-5.429-16.632-19.789v-27.28H4581.374z"/>
			</g>
			<g enable-background="new    ">
				<path fill="#FFFFFF" d="M4646.967-10312.438c2.613-0.55,6.736-0.962,10.928-0.962c5.98,0,9.828,1.03,12.715,3.367
					c2.405,1.786,3.848,4.534,3.848,8.176c0,4.467-2.956,8.385-7.835,10.17l0,0.138c4.398,1.1,9.553,4.741,9.553,11.613
					c0,3.984-1.581,7.009-3.918,9.276c-3.229,2.955-8.453,4.328-16.013,4.329c-4.123,0-7.284-0.275-9.278-0.551L4646.967-10312.438z
					 M4652.947-10271.278c1.168,0.207,2.887,0.275,5.017,0.275c6.185,0,11.889-2.268,11.889-9.002c0-6.321-5.429-8.933-11.958-8.933
					h-4.948V-10271.278z M4652.947-10293.472h5.43c6.322-0.001,10.034-3.299,10.034-7.766c0-5.428-4.124-7.559-10.171-7.558
					c-2.75-0.001-4.331,0.205-5.292,0.411V-10293.472z"/>
			</g>
			<g enable-background="new    ">
				<path fill="#FFFFFF" d="M4751.057-10287.08c-0.343-6.46-0.756-14.224-0.687-19.996h-0.207c-1.581,5.429-3.504,11.2-5.842,17.591
					l-8.179,22.47l-4.536-0.001l-7.492-22.056c-2.199-6.528-4.054-12.507-5.36-18.005l-0.137,0.001
					c-0.137,5.772-0.48,13.537-0.894,20.477l-1.236,19.858h-5.705l3.229-46.312h7.629l7.904,22.399
					c1.924,5.705,3.505,10.789,4.673,15.599h0.207c1.168-4.672,2.817-9.757,4.879-15.598l8.246-22.401h7.63l2.887,46.313h-5.842
					L4751.057-10287.08z"/>
			</g>
			<g enable-background="new    ">
				<path fill="#FFFFFF" d="M4808.064-10313.061v46.313l-5.98-0.001v-46.312L4808.064-10313.061z"/>
			</g>
			<g enable-background="new    ">
				<path fill="#FFFFFF" d="M4850.474-10307.975l-14.088,0.001v-5.085h34.294l0,5.084l-14.158,0.001v41.228h-6.046
					L4850.474-10307.975z"/>
			</g>
		</g>
	</g>
	<path fill="#B0D8FF" d="M695.186,1331.316c1.863-1.074,2.078-2.7,0.476-3.625l-29.275-16.909c-1.6-0.925-4.413-0.806-6.276,0.27
		l-3.646,2.105c-1.863,1.076-2.078,2.701-0.475,3.626l29.275,16.915c1.6,0.925,4.413,0.801,6.276-0.275L695.186,1331.316z"/>
	<path fill="#B0D8FF" d="M480.065,1447.332c1.865-1.076,2.078-2.697,0.477-3.621l-29.274-16.915
		c-1.603-0.925-4.414-0.801-6.279,0.275l-3.646,2.105c-1.863,1.076-2.075,2.701-0.475,3.621l29.275,16.919
		c1.6,0.921,4.414,0.801,6.279-0.28L480.065,1447.332z"/>
	<path fill="#B0D8FF" d="M713.144,1376.134c1.863-1.076,2.078-2.701,0.476-3.626l-84.412-48.528
		c-1.603-0.924-4.413-0.799-6.277,0.275l-3.648,2.106c-1.864,1.074-2.076,2.7-0.475,3.625l84.414,48.522
		c1.6,0.925,4.414,0.806,6.276-0.27L713.144,1376.134L713.144,1376.134z"/>
	<path fill="#9CCEFF" d="M388.161,1566.226c1.863-1.074,2.075-2.7,0.475-3.625l-84.414-48.528c-1.6-0.925-4.413-0.801-6.277,0.275
		l-3.646,2.106c-1.866,1.074-2.078,2.7-0.478,3.625l84.417,48.528c1.598,0.925,4.411,0.801,6.276-0.275L388.161,1566.226z"/>
	<path fill="#B0D8FF" d="M619.302,1433.273c1.863-1.076,2.075-2.701,0.475-3.626l-84.414-48.527c-1.6-0.925-4.413-0.8-6.277,0.274
		l-3.646,2.106c-1.863,1.074-2.078,2.701-0.475,3.625l84.411,48.528c1.603,0.926,4.414,0.801,6.279-0.275L619.302,1433.273z"/>
	<path fill="#B0D8FF" d="M804.062,1428.616c1.863-1.074,2.075-2.7,0.475-3.625l-74.817-43.197c-1.603-0.925-4.413-0.801-6.276,0.275
		l-3.648,2.106c-1.863,1.074-2.076,2.7-0.475,3.625l74.816,43.191c1.603,0.925,4.414,0.805,6.279-0.27L804.062,1428.616z"/>
	<path fill="#9CCEFF" d="M479.996,1619.3c1.864-1.08,2.078-2.701,0.478-3.626l-74.82-43.195c-1.6-0.92-4.414-0.801-6.276,0.275
		l-3.646,2.105c-1.863,1.076-2.075,2.701-0.475,3.626l74.817,43.195c1.6,0.921,4.414,0.801,6.276-0.275L479.996,1619.3z"/>
	<path fill="#B0D8FF" d="M712.296,1487.081c1.863-1.074,2.078-2.7,0.475-3.621l-74.817-43.195c-1.6-0.925-4.414-0.801-6.276,0.275
		l-3.646,2.105c-1.866,1.076-2.079,2.701-0.478,3.621l74.819,43.197c1.6,0.924,4.414,0.799,6.276-0.275L712.296,1487.081
		L712.296,1487.081z"/>
	<path fill="#B0D8FF" d="M684.666,1387.696c1.863-1.074,2.076-2.701,0.476-3.625l-77.362-44.647c-1.6-0.926-4.414-0.801-6.276,0.275
		l-3.646,2.106c-1.863,1.074-2.078,2.7-0.478,3.625l77.362,44.646c1.603,0.926,4.414,0.801,6.276-0.274L684.666,1387.696z"/>
	<path fill="#9CCEFF" d="M357.458,1576.355c1.863-1.076,2.076-2.701,0.475-3.626l-77.362-44.646c-1.6-0.925-4.414-0.801-6.276,0.275
		l-3.646,2.105c-1.863,1.076-2.079,2.695-0.478,3.621l77.362,44.652c1.6,0.925,4.413,0.801,6.276-0.276L357.458,1576.355z"/>
	<path fill="#B0D8FF" d="M588.427,1443.276c1.863-1.076,2.075-2.695,0.475-3.621l-77.362-44.652c-1.6-0.925-4.413-0.801-6.276,0.275
		l-3.646,2.105c-1.864,1.076-2.078,2.701-0.478,3.626l77.365,44.646c1.6,0.925,4.411,0.806,6.276-0.274L588.427,1443.276z"/>
	<path fill="#B0D8FF" d="M640.97,1387.351c1.863-1.076,2.078-2.695,0.475-3.621l-56.329-32.523c-1.6-0.925-4.411-0.801-6.276,0.275
		l-3.646,2.105c-1.863,1.076-2.078,2.701-0.475,3.621l56.329,32.523c1.6,0.926,4.414,0.806,6.276-0.275L640.97,1387.351z"/>
	<path fill="#9CCEFF" d="M315.98,1577.451c1.866-1.076,2.078-2.701,0.478-3.626l-56.33-32.523c-1.603-0.925-4.413-0.801-6.279,0.275
		l-3.646,2.105c-1.864,1.076-2.076,2.701-0.475,3.621l56.329,32.523c1.6,0.925,4.413,0.805,6.279-0.27L315.98,1577.451
		L315.98,1577.451z"/>
	<path fill="#B0D8FF" d="M541.61,1440.931c1.863-1.076,2.075-2.701,0.475-3.622l-56.329-32.523c-1.6-0.926-4.413-0.805-6.279,0.271
		l-3.644,2.105c-1.866,1.076-2.078,2.701-0.478,3.626l56.33,32.523c1.602,0.925,4.413,0.799,6.276-0.276L541.61,1440.931
		L541.61,1440.931z"/>
	<path fill="#B0D8FF" d="M809.789,1460.18c1.865-1.08,2.078-2.701,0.478-3.626l-107.21-61.921c-1.6-0.924-4.413-0.805-6.276,0.275
		l-3.648,2.101c-1.863,1.08-2.076,2.701-0.476,3.626l107.21,61.925c1.6,0.92,4.414,0.801,6.276-0.275L809.789,1460.18z"/>
	<path fill="#9CCEFF" d="M480.065,1647.212c1.865-1.074,2.078-2.7,0.477-3.625l-107.209-61.921c-1.6-0.925-4.413-0.801-6.277,0.275
		l-3.646,2.105c-1.863,1.076-2.078,2.701-0.475,3.621l107.207,61.927c1.6,0.925,4.414,0.799,6.279-0.275L480.065,1647.212z"/>
	<path fill="#B0D8FF" d="M718.738,1519.115c1.863-1.076,2.075-2.701,0.475-3.625l-107.21-61.921c-1.6-0.925-4.411-0.801-6.276,0.274
		l-3.646,2.106c-1.863,1.074-2.079,2.695-0.476,3.621l107.207,61.925c1.603,0.921,4.414,0.8,6.277-0.274L718.738,1519.115
		L718.738,1519.115z"/>
	<path fill="#B0D8FF" d="M800.081,1479.29c1.863-1.076,2.076-2.701,0.476-3.626l-143.712-83.002c-1.6-0.925-4.414-0.8-6.276,0.276
		l-3.646,2.105c-1.866,1.076-2.078,2.701-0.475,3.627l143.71,83.001c1.6,0.925,4.413,0.801,6.279-0.275l3.644-2.105H800.081z"/>
	<path fill="#9CCEFF" d="M475.09,1669.383c1.863-1.074,2.078-2.695,0.478-3.621l-143.712-83.006c-1.6-0.92-4.413-0.801-6.276,0.275
		l-3.646,2.105c-1.865,1.076-2.078,2.701-0.475,3.626l143.71,83.006c1.6,0.921,4.413,0.801,6.276-0.279L475.09,1669.383z"/>
	<path fill="#B0D8FF" d="M700.719,1532.869c1.862-1.076,2.078-2.701,0.475-3.627l-143.71-83c-1.6-0.925-4.413-0.801-6.276,0.274
		l-3.648,2.106c-1.863,1.075-2.075,2.701-0.475,3.621l143.709,83.006c1.603,0.925,4.416,0.8,6.279-0.274L700.719,1532.869z"/>
	<g>
		<g>
			<path fill="#A639FF" d="M794.389,451.722c47.507,12.378,100.011-2.481,100.011-2.481v0.016l0.01-0.01
				c0,0,41.095,68.997,84.797,109.367c-4.396,31.174-25.167,112.339-73.674,141.716v0.015l-36.559,21.441l0.44-3.226
				c-8.467,2.296-17.604,3.101-27.465,2.046v-0.005l-0.008-0.04l-0.005,0.04c-63.046-70.213-69.147-183.387-66.237-238.261
				l-16.872-9.757L794.389,451.722L794.389,451.722z"/>
			<path fill="#D388FF" d="M858.831,470.117l35.564-20.876v0.016l0.01-0.01c0,0,41.095,68.997,84.796,109.367
				c-4.396,31.174-25.166,112.339-73.673,141.716v0.015l-36.559,21.441l0.44-3.226c-8.467,2.296-17.605,3.101-27.464,2.046v-0.005
				l-0.008-0.04l-0.005,0.04C778.886,650.388,855.92,524.991,858.831,470.117L858.831,470.117z"/>
			<path fill="#6B00C2" d="M943.643,579.474c0,0,35.714-20.77,35.559-20.86c-4.396,31.174-25.166,112.339-73.673,141.716v0.015
				l-36.554,21.441l0.435-3.226c-8.462,2.296-17.605,3.101-27.464,2.046l0.002-0.005l-0.007-0.04l-0.005,0.04
				C778.886,650.388,940.732,634.348,943.643,579.474L943.643,579.474z"/>
			<path fill="#C767FF" d="M858.846,470.107c0,0,41.095,68.997,84.792,109.368c-5.606,39.76-37.86,160.891-120.361,152.084v-0.01
				l0,0l-0.005-0.035l-0.005,0.035c-72.686-80.946-69.685-218.991-64.444-258.966c47.505,12.378,100.008-2.481,100.008-2.481v0.016
				L858.846,470.107z"/>
			<path fill="#D2E8FF" d="M855.821,492.332c0,0,34.109,57.265,70.378,90.773c-4.656,33.004-31.428,133.534-99.898,126.227v-0.01
				l0,0l-0.005-0.03l-0.005,0.03c-60.328-67.182-57.835-181.756-53.486-214.935c39.43,10.273,83.006-2.061,83.006-2.061v0.01
				L855.821,492.332z"/>
			<g>
				<path fill="#A539FF" d="M866.183,609.792l-55.654-29.482l-7.21,50.948l55.652,29.477L866.183,609.792z"/>
				<path fill="#A539FF" d="M816.205,583.325l7.99,4.231l5.391-38.114c0.598-4.221,4.254-5.972,8.16-3.901l14.153,7.496
					c3.906,2.066,6.592,7.177,5.992,11.398l-5.391,38.115l7.987,4.231l5.931-41.911c0.935-6.606-3.265-14.594-9.377-17.834
					L834.9,535.308c-6.112-3.236-11.83-0.5-12.764,6.107L816.205,583.325z"/>
			</g>
			<path fill="#3700CC" d="M866.083,700.09c-11.338,7.141-24.521,10.868-39.778,9.242l0.003-0.01l-0.008-0.03l-0.005,0.03
				c-60.328-67.182-57.835-181.756-53.486-214.935c1.115,0.29,2.235,0.56,3.36,0.815c-4.076,36.6-4.778,146.648,53.849,211.94
				l0.002-0.035l0.008,0.035l-0.003,0.005C843.647,708.602,855.615,705.787,866.083,700.09z"/>
		</g>
	</g>
	<path fill="#F1F2F2" d="M816.193,1719.461c28.357,16.205,74.211,15.999,102.423-0.454c28.213-16.459,28.093-42.936-0.265-59.135
		c-28.353-16.205-74.214-15.995-102.419,0.46C787.72,1676.786,787.838,1703.257,816.193,1719.461L816.193,1719.461z"/>
	<g>
		<path fill="#F4A956" d="M794.794,1665.613l3.991,5.926c3.445-5.821,9.167-11.298,17.177-15.979
			c28.212-16.455,74.066-16.653,102.423-0.45c7.847,4.481,13.529,9.758,17.044,15.394l4.206-5.531l0.06,12.648l-0.025-0.02
			c0.325,10.902-6.677,21.891-21.051,30.272c-28.212,16.455-74.066,16.665-102.423,0.46c-14.179-8.096-21.295-18.77-21.343-29.472
			L794.794,1665.613L794.794,1665.613z"/>
		
			<radialGradient id="SVGID_1_" cx="772.7136" cy="2800.9656" r="5.1217" gradientTransform="matrix(-3.3627 -1.0329 1.0329 -3.3627 1777.9714 6118.3428)" gradientUnits="userSpaceOnUse">
			<stop  offset="0" style="stop-color:#FBE585"/>
			<stop  offset="1" style="stop-color:#FDCC6C"/>
		</radialGradient>
		<path fill="url(#SVGID_1_)" d="M816.145,1695.084c28.355,16.205,74.208,16.005,102.421-0.454
			c28.212-16.459,28.092-42.931-0.265-59.136c-28.352-16.198-74.213-15.993-102.418,0.465
			C787.673,1652.414,787.788,1678.885,816.145,1695.084z"/>
		<path fill="#F4A956" d="M867.533,1630.803c15.304,0,30.578,3.331,42.261,10.004c11.308,6.467,17.565,15.064,17.609,24.206
			c0.035,9.152-6.142,17.809-17.394,24.376c-23.476,13.694-61.771,13.863-85.375,0.38c-11.312-6.467-17.569-15.064-17.606-24.216
			c-0.043-9.144,6.134-17.796,17.386-24.362C836.273,1634.275,851.92,1630.803,867.533,1630.803z M866.898,1700.982
			c15.839,0,31.698-3.516,43.726-10.533c11.658-6.797,18.044-15.829,18.005-25.436c-0.045-9.602-6.517-18.585-18.23-25.272
			c-23.931-13.674-62.781-13.498-86.6,0.39c-11.651,6.797-18.045,15.824-18.003,25.436c0.043,9.602,6.519,18.579,18.232,25.266
			C835.873,1697.601,851.374,1700.982,866.898,1700.982z"/>
		
			<radialGradient id="SVGID_2_" cx="641.868" cy="1557.2277" r="5.1286" gradientTransform="matrix(-45.9238 -14.1062 14.1062 -45.9238 8344.4033 82283.5547)" gradientUnits="userSpaceOnUse">
			<stop  offset="0" style="stop-color:#FBE585"/>
			<stop  offset="1" style="stop-color:#FDCC6C"/>
		</radialGradient>
		<path fill="url(#SVGID_2_)" d="M824.33,1690.304c23.806,13.603,62.303,13.428,85.989-0.386
			c23.681-13.813,23.581-36.039-0.22-49.642c-23.806-13.603-62.304-13.429-85.99,0.38
			C800.426,1654.475,800.529,1676.705,824.33,1690.304z"/>
		<path fill="#F4A956" d="M910.109,1643.181c-23.801-13.603-62.296-13.433-85.982,0.38c-11.205,6.532-17.074,14.949-17.647,23.447
			c-0.718-9.457,5.154-19.075,17.632-26.358c23.683-13.813,62.181-13.984,85.987-0.379c12.543,7.161,18.5,16.723,17.865,26.192
			C927.318,1657.975,921.367,1649.614,910.109,1643.181L910.109,1643.181z"/>
		<path fill="#FBE585" d="M816.12,1692.32c28.355,16.203,74.213,15.993,102.421-0.46c13.498-7.868,20.495-18.046,21.035-28.278
			c0.681,11.153-6.311,22.456-21.02,31.039c-28.213,16.459-74.069,16.659-102.421,0.454c-14.789-8.447-21.881-19.689-21.295-30.847
			C795.47,1674.464,802.554,1684.567,816.12,1692.32L816.12,1692.32z"/>
	</g>
	<g>
		<path fill="#F4A956" d="M803.189,1644.422l3.993,5.927c3.443-5.822,9.165-11.298,17.174-15.975
			c28.213-16.453,74.069-16.659,102.421-0.454c7.853,4.481,13.529,9.757,17.049,15.393l4.206-5.531l0.06,12.648l-0.031-0.02
			c0.331,10.903-6.677,21.891-21.05,30.278c-28.213,16.455-74.064,16.659-102.421,0.46c-14.179-8.102-21.295-18.774-21.343-29.477
			L803.189,1644.422L803.189,1644.422z"/>
		
			<radialGradient id="SVGID_3_" cx="772.7072" cy="2800.915" r="5.1217" gradientTransform="matrix(-3.3627 -1.0329 1.0329 -3.3627 1777.9714 6118.3428)" gradientUnits="userSpaceOnUse">
			<stop  offset="0" style="stop-color:#FBE585"/>
			<stop  offset="1" style="stop-color:#FDCC6C"/>
		</radialGradient>
		<path fill="url(#SVGID_3_)" d="M824.527,1673.895c28.357,16.204,74.209,16.003,102.421-0.45
			c28.212-16.459,28.092-42.936-0.265-59.136c-28.352-16.204-74.214-15.999-102.419,0.461
			C796.053,1631.223,796.17,1657.696,824.527,1673.895z"/>
		<path fill="#F4A956" d="M875.93,1609.613c15.304,0,30.573,3.326,42.256,10.002c11.313,6.462,17.57,15.064,17.61,24.206
			c0.04,9.153-6.137,17.81-17.39,24.376c-23.481,13.694-61.776,13.864-85.377,0.38c-11.313-6.467-17.57-15.064-17.604-24.216
			c-0.045-9.142,6.132-17.795,17.384-24.362C844.667,1613.079,860.312,1609.613,875.93,1609.613z M875.29,1679.787
			c15.839,0,31.704-3.511,43.731-10.529c11.653-6.796,18.045-15.829,18-25.436c-0.04-9.602-6.516-18.584-18.225-25.272
			c-23.936-13.673-62.786-13.502-86.602,0.39c-11.65,6.797-18.044,15.824-18.002,25.436c0.043,9.603,6.519,18.575,18.232,25.267
			C844.267,1676.41,859.767,1679.787,875.29,1679.787z"/>
		
			<radialGradient id="SVGID_4_" cx="641.8426" cy="1557.6162" r="5.1093" gradientTransform="matrix(-45.9238 -14.1062 14.1062 -45.9238 8346.0439 82279.375)" gradientUnits="userSpaceOnUse">
			<stop  offset="0" style="stop-color:#FBE585"/>
			<stop  offset="1" style="stop-color:#FDCC6C"/>
		</radialGradient>
		<path fill="url(#SVGID_4_)" d="M832.724,1669.113c23.806,13.603,62.307,13.429,85.987-0.385
			c23.686-13.813,23.581-36.039-0.22-49.638c-23.806-13.603-62.301-13.433-85.987,0.375
			C808.821,1633.284,808.924,1655.516,832.724,1669.113z"/>
		<path fill="#F4A956" d="M918.506,1622.001c-23.801-13.599-62.301-13.428-85.981,0.381c-11.206,6.536-17.077,14.953-17.65,23.451
			c-0.718-9.463,5.154-19.075,17.632-26.362c23.683-13.809,62.178-13.979,85.989-0.38c12.539,7.166,18.495,16.73,17.86,26.197
			C935.716,1636.8,929.764,1628.433,918.506,1622.001L918.506,1622.001z"/>
		<path fill="#FBE585" d="M824.515,1671.129c28.355,16.205,74.212,15.999,102.419-0.454c13.503-7.872,20.495-18.046,21.035-28.282
			c0.681,11.152-6.306,22.456-21.02,31.043c-28.207,16.453-74.069,16.653-102.419,0.45c-14.791-8.448-21.88-19.691-21.297-30.848
			C803.864,1653.274,810.949,1663.377,824.515,1671.129L824.515,1671.129z"/>
	</g>
	<g>
		<path fill="#F4A956" d="M810.686,1619.556l3.991,5.932c3.445-5.822,9.167-11.304,17.179-15.979
			c28.209-16.455,74.062-16.659,102.418-0.456c7.852,4.487,13.529,9.762,17.049,15.394l4.206-5.531l0.06,12.648l-0.03-0.02
			c0.33,10.908-6.677,21.891-21.051,30.278c-28.212,16.455-74.064,16.665-102.418,0.46c-14.181-8.102-21.298-18.77-21.348-29.473
			L810.686,1619.556L810.686,1619.556z"/>
		
			<radialGradient id="SVGID_5_" cx="772.7137" cy="2800.999" r="5.1213" gradientTransform="matrix(-3.3627 -1.0329 1.0329 -3.3627 1777.9714 6118.3428)" gradientUnits="userSpaceOnUse">
			<stop  offset="0" style="stop-color:#FBE585"/>
			<stop  offset="1" style="stop-color:#FDCC6C"/>
		</radialGradient>
		<path fill="url(#SVGID_5_)" d="M832.024,1649.033c28.357,16.205,74.209,15.999,102.421-0.456
			c28.212-16.459,28.092-42.93-0.26-59.135c-28.357-16.203-74.218-15.993-102.423,0.46
			C803.552,1606.357,803.669,1632.828,832.024,1649.033z"/>
		<path fill="#F4A956" d="M883.427,1584.746c15.304,0,30.573,3.331,42.256,10.004c11.313,6.467,17.57,15.064,17.609,24.211
			c0.041,9.146-6.137,17.809-17.389,24.37c-23.481,13.694-61.771,13.869-85.377,0.38c-11.313-6.462-17.567-15.064-17.607-24.211
			c-0.04-9.148,6.135-17.799,17.387-24.366C852.164,1588.218,867.814,1584.746,883.427,1584.746z M882.787,1654.925
			c15.844,0,31.703-3.516,43.731-10.533c11.653-6.797,18.044-15.829,18-25.431c-0.04-9.608-6.517-18.585-18.225-25.277
			c-23.936-13.668-62.786-13.498-86.602,0.396c-11.648,6.792-18.044,15.819-18,25.431c0.043,9.602,6.517,18.579,18.23,25.266
			C851.764,1651.548,867.268,1654.925,882.787,1654.925z"/>
		
			<radialGradient id="SVGID_6_" cx="641.8399" cy="1558.0468" r="5.1099" gradientTransform="matrix(-45.9238 -14.1062 14.1062 -45.9238 8347.5225 82274.5547)" gradientUnits="userSpaceOnUse">
			<stop  offset="0" style="stop-color:#FBE585"/>
			<stop  offset="1" style="stop-color:#FDCC6C"/>
		</radialGradient>
		<path fill="url(#SVGID_6_)" d="M840.224,1644.251c23.803,13.605,62.304,13.424,85.984-0.385
			c23.686-13.819,23.586-36.039-0.22-49.642c-23.806-13.603-62.301-13.434-85.984,0.38
			C816.32,1608.418,816.42,1630.648,840.224,1644.251L840.224,1644.251z"/>
		<path fill="#F4A956" d="M926.003,1597.14c-23.801-13.603-62.301-13.433-85.982,0.38c-11.205,6.532-17.077,14.949-17.649,23.445
			c-0.715-9.457,5.154-19.075,17.632-26.356c23.683-13.813,62.178-13.984,85.989-0.38c12.544,7.168,18.495,16.73,17.86,26.191
			C943.213,1611.934,937.261,1603.571,926.003,1597.14L926.003,1597.14z"/>
		<path fill="#FBE585" d="M832.012,1646.278c28.355,16.203,74.216,15.993,102.424-0.461c13.498-7.872,20.49-18.045,21.03-28.277
			c0.681,11.148-6.306,22.456-21.015,31.037c-28.213,16.455-74.074,16.66-102.421,0.456c-14.791-8.447-21.881-19.691-21.298-30.848
			C811.361,1628.423,818.448,1638.526,832.012,1646.278z"/>
	</g>
	<g>
		<path fill="#F1F2F2" d="M738.845,1780.202c28.355,16.203,74.209,15.999,102.418-0.456c28.215-16.459,28.095-42.932-0.26-59.135
			c-28.358-16.205-74.216-15.995-102.421,0.46C710.371,1737.526,710.491,1763.997,738.845,1780.202z"/>
		<path fill="#F4A956" d="M717.495,1726.738l3.994,5.927c3.445-5.822,9.167-11.304,17.176-15.979
			c28.21-16.455,74.064-16.655,102.421-0.456c7.85,4.487,13.529,9.762,17.049,15.399l4.201-5.536l0.06,12.654l-0.025-0.026
			c0.325,10.908-6.677,21.895-21.05,30.278c-28.213,16.453-74.066,16.663-102.421,0.46c-14.182-8.102-21.298-18.77-21.346-29.473
			L717.495,1726.738L717.495,1726.738z"/>
		
			<radialGradient id="SVGID_7_" cx="772.7142" cy="2800.6614" r="5.1203" gradientTransform="matrix(-3.3627 -1.0329 1.0329 -3.3627 1777.9714 6118.3428)" gradientUnits="userSpaceOnUse">
			<stop  offset="0" style="stop-color:#FBE585"/>
			<stop  offset="1" style="stop-color:#FDCC6C"/>
		</radialGradient>
		<path fill="url(#SVGID_7_)" d="M738.845,1756.211c28.355,16.203,74.209,15.999,102.418-0.456
			c28.215-16.459,28.095-42.93-0.26-59.135c-28.358-16.204-74.216-15.993-102.421,0.46
			C710.371,1713.535,710.491,1740.007,738.845,1756.211z"/>
		<path fill="#F4A956" d="M790.246,1691.939c15.307,0,30.577,3.331,42.258,10.002c11.313,6.462,17.57,15.064,17.61,24.207
			c0.04,9.152-6.137,17.809-17.39,24.376c-23.481,13.693-61.773,13.863-85.377,0.379c-11.313-6.467-17.57-15.064-17.604-24.21
			c-0.045-9.148,6.132-17.8,17.384-24.368C758.985,1695.405,774.632,1691.939,790.246,1691.939L790.246,1691.939z M789.611,1762.117
			c15.839,0,31.701-3.52,43.728-10.532c11.656-6.797,18.044-15.83,18-25.436c-0.04-9.603-6.516-18.581-18.225-25.272
			c-23.933-13.674-62.783-13.504-86.602,0.39c-11.648,6.796-18.042,15.823-18.002,25.436c0.045,9.602,6.519,18.574,18.232,25.266
			C758.585,1758.736,774.087,1762.117,789.611,1762.117z"/>
		
			<radialGradient id="SVGID_8_" cx="642.8073" cy="1555.8677" r="5.1099" gradientTransform="matrix(-45.9238 -14.1062 14.1062 -45.9238 8329.3193 82295.5)" gradientUnits="userSpaceOnUse">
			<stop  offset="0" style="stop-color:#FBE585"/>
			<stop  offset="1" style="stop-color:#FDCC6C"/>
		</radialGradient>
		<path fill="url(#SVGID_8_)" d="M747.042,1751.429c23.809,13.605,62.306,13.424,85.99-0.385
			c23.683-13.819,23.583-36.039-0.22-49.642c-23.809-13.604-62.304-13.434-85.987,0.379
			C723.139,1715.6,723.242,1737.826,747.042,1751.429L747.042,1751.429z"/>
		<path fill="#F4A956" d="M832.812,1704.318c-23.803-13.603-62.299-13.429-85.982,0.38c-11.205,6.531-17.077,14.949-17.65,23.451
			c-0.715-9.463,5.154-19.081,17.632-26.362c23.686-13.813,62.181-13.984,85.987-0.38c12.544,7.168,18.5,16.73,17.865,26.192
			C850.019,1719.111,844.07,1710.749,832.812,1704.318L832.812,1704.318z"/>
		<path fill="#FBE585" d="M738.833,1753.454c28.355,16.205,74.214,15.999,102.419-0.46c13.503-7.872,20.495-18.039,21.036-28.277
			c0.68,11.148-6.307,22.456-21.018,31.043c-28.21,16.449-74.072,16.653-102.419,0.45c-14.794-8.448-21.883-19.689-21.3-30.848
			C718.182,1735.6,725.267,1745.703,738.833,1753.454z"/>
	</g>
	<g>
		<g>
			<path fill="#F1F2F2" d="M278.035,1408.752c4.258,2.46,10.715,2.725,14.406,0.595l303.661-175.315
				c3.69-2.13,3.225-5.861-1.033-8.318l-201.596-116.395c-4.261-2.456-10.715-2.725-14.406-0.595l-303.66,175.32
				c-3.691,2.13-3.226,5.858,1.035,8.318L278.035,1408.752L278.035,1408.752z"/>
			<path fill="#B5DAFF" d="M598.58,1199.433c0.11,1.605-0.798,3.145-2.766,4.286l-302.142,174.44
				c-4.111,2.375-11.303,2.075-16.049-0.666L76.871,1261.589c-2.69-1.55-4.02-3.556-3.92-5.436l0,0v-68.887l7.609,4.391v0.204
				l297.301-171.649c4.111-2.375,11.303-2.075,16.049,0.666l197.313,113.919l7.367-4.251v68.882L598.58,1199.433L598.58,1199.433z"
				/>
			<path fill="#94C6F9" d="M114.946,1172.001l167.387,96.64v110.632c-1.688-0.379-3.303-0.975-4.706-1.786L76.876,1261.584
				c-2.691-1.556-4.024-3.561-3.924-5.436v-68.889l7.61,4.391v0.2L114.946,1172.001L114.946,1172.001z"/>
			<path fill="#EDF6FF" d="M278.035,1308.811c4.258,2.461,10.715,2.731,14.406,0.6l303.661-175.32
				c3.69-2.13,3.225-5.856-1.033-8.317l-201.596-116.389c-4.261-2.461-10.715-2.731-14.406-0.6l-303.66,175.32
				c-3.691,2.13-3.226,5.856,1.035,8.318L278.035,1308.811L278.035,1308.811z"/>
			<g>
				<path fill="#7EC0FF" d="M501.492,1114.611c1.116-0.66,2.913-0.67,4.014-0.024l20.122,11.838c1.098,0.65,1.085,1.71-0.03,2.376
					l-2.183,1.29c-1.115,0.666-2.916,0.676-4.013,0.026l-20.123-11.839c-1.101-0.645-1.085-1.71,0.03-2.37L501.492,1114.611z"/>
				<path fill="#7EC0FF" d="M380.094,1190.376c1.115-0.661,2.913-0.676,4.013-0.025l20.122,11.837
					c1.101,0.646,1.086,1.71-0.03,2.372l-2.183,1.294c-1.116,0.66-2.913,0.67-4.013,0.026l-20.123-11.839
					c-1.098-0.65-1.087-1.71,0.03-2.37L380.094,1190.376z"/>
				<path fill="#7EC0FF" d="M445.265,1103.463c1.108-0.67,2.906-0.695,4.008-0.054l57.95,33.718c1.103,0.64,1.097,1.705-0.01,2.375
					l-2.171,1.311c-1.111,0.674-2.906,0.694-4.009,0.054l-57.95-33.719c-1.103-0.64-1.1-1.7,0.01-2.37L445.265,1103.463
					L445.265,1103.463z"/>
				<path fill="#7EC0FF" d="M323.264,1180.593c1.115-0.664,2.916-0.674,4.016-0.024l57.735,34.148c1.101,0.646,1.085,1.71-0.03,2.37
					l-2.186,1.296c-1.115,0.66-2.913,0.67-4.013,0.02l-57.735-34.148c-1.101-0.646-1.088-1.71,0.03-2.372L323.264,1180.593z"/>
				<path fill="#7EC0FF" d="M389.909,1138.287c1.118-0.664,2.915-0.674,4.016-0.024l57.744,34.123c1.1,0.646,1.088,1.71-0.028,2.37
					l-2.183,1.296c-1.116,0.66-2.913,0.676-4.013,0.025l-57.747-34.13c-1.1-0.644-1.088-1.705,0.028-2.37L389.909,1138.287
					L389.909,1138.287z"/>
				<path fill="#7EC0FF" d="M267.467,1215.177c1.115-0.66,2.915-0.67,4.013-0.024l57.75,34.129c1.098,0.644,1.086,1.71-0.03,2.37
					l-2.183,1.296c-1.118,0.66-2.913,0.67-4.014,0.024l-57.747-34.129c-1.1-0.646-1.088-1.71,0.027-2.37L267.467,1215.177
					L267.467,1215.177z"/>
				<path fill="#7EC0FF" d="M383.842,1067.785c1.111-0.67,2.906-0.695,4.011-0.055l51.566,29.893c1.105,0.64,1.1,1.705-0.01,2.37
					l-2.171,1.316c-1.108,0.67-2.906,0.694-4.008,0.054l-51.568-29.892c-1.103-0.64-1.098-1.706,0.01-2.376L383.842,1067.785
					L383.842,1067.785z"/>
				<path fill="#7EC0FF" d="M259.398,1140.794c1.116-0.661,2.913-0.671,4.014-0.026l51.378,30.278c1.1,0.645,1.085,1.71-0.031,2.37
					l-2.185,1.29c-1.116,0.66-2.914,0.676-4.014,0.026l-51.375-30.274c-1.101-0.65-1.088-1.71,0.027-2.37L259.398,1140.794z"/>
				<path fill="#7EC0FF" d="M325.9,1100.673c1.115-0.66,2.913-0.67,4.013-0.026l51.388,30.258c1.099,0.646,1.086,1.71-0.03,2.372
					l-2.183,1.294c-1.116,0.66-2.913,0.67-4.013,0.026l-51.389-30.258c-1.1-0.646-1.085-1.71,0.031-2.37L325.9,1100.673
					L325.9,1100.673z"/>
				<path fill="#7EC0FF" d="M202.938,1177.077c1.118-0.66,2.915-0.674,4.016-0.024l51.388,30.252c1.098,0.65,1.085,1.71-0.03,2.37
					l-2.183,1.296c-1.115,0.66-2.913,0.676-4.014,0.024l-51.388-30.252c-1.1-0.65-1.088-1.71,0.028-2.37L202.938,1177.077
					L202.938,1177.077z"/>
				<path fill="#7EC0FF" d="M436.53,1114.761c1.115-0.66,2.913-0.676,4.013-0.025l53.119,31.284c1.1,0.644,1.085,1.71-0.03,2.37
					l-2.184,1.296c-1.115,0.66-2.913,0.67-4.013,0.024l-53.119-31.283c-1.097-0.65-1.085-1.71,0.031-2.37L436.53,1114.761z"/>
				<path fill="#7EC0FF" d="M315.537,1190.745c1.118-0.664,2.916-0.674,4.016-0.024l53.118,31.283
					c1.099,0.646,1.086,1.705-0.03,2.37l-2.183,1.29c-1.116,0.666-2.913,0.676-4.013,0.03l-53.119-31.283
					c-1.1-0.65-1.087-1.71,0.03-2.376L315.537,1190.745L315.537,1190.745z"/>
				<path fill="#7EC0FF" d="M380.457,1149.756c1.115-0.666,2.913-0.676,4.013-0.03l53.119,31.283c1.1,0.65,1.085,1.71-0.028,2.376
					l-2.186,1.29c-1.115,0.664-2.913,0.674-4.013,0.024l-53.119-31.283c-1.1-0.644-1.085-1.705,0.031-2.37L380.457,1149.756z"/>
				<path fill="#7EC0FF" d="M259.45,1225.736c1.116-0.661,2.913-0.672,4.014-0.026l53.118,31.283c1.1,0.65,1.085,1.71-0.03,2.37
					l-2.183,1.296c-1.116,0.66-2.914,0.676-4.014,0.026l-53.118-31.284c-1.101-0.644-1.086-1.71,0.03-2.37L259.45,1225.736z"/>
				<path fill="#7EC0FF" d="M438.233,1131.046c1.116-0.66,2.914-0.67,4.011-0.025l38.693,22.781c1.101,0.646,1.088,1.71-0.028,2.372
					l-2.183,1.295c-1.115,0.66-2.915,0.67-4.013,0.025l-38.692-22.781c-1.1-0.646-1.087-1.71,0.03-2.37L438.233,1131.046z"/>
				<path fill="#7EC0FF" d="M315.507,1208.33c1.115-0.66,2.913-0.67,4.013-0.02l38.693,22.776c1.101,0.644,1.088,1.71-0.03,2.37
					l-2.183,1.296c-1.116,0.66-2.913,0.67-4.014,0.024l-38.693-22.781c-1.097-0.644-1.087-1.71,0.031-2.37L315.507,1208.33z"/>
				<path fill="#7EC0FF" d="M382.544,1166.234c1.115-0.66,2.913-0.67,4.013-0.024l38.693,22.781c1.1,0.644,1.085,1.71-0.03,2.37
					l-2.183,1.294c-1.115,0.661-2.914,0.671-4.014,0.026l-38.693-22.781c-1.098-0.646-1.088-1.71,0.031-2.37L382.544,1166.234
					L382.544,1166.234z"/>
				<path fill="#7EC0FF" d="M262.243,1241.754c1.118-0.666,2.915-0.676,4.016-0.03l38.692,22.781c1.097,0.65,1.085,1.71-0.03,2.37
					l-2.183,1.294c-1.115,0.66-2.915,0.672-4.013,0.026l-38.693-22.781c-1.101-0.646-1.088-1.706,0.028-2.37L262.243,1241.754z"/>
				<path fill="#7EC0FF" d="M352.699,1065.424c1.115-0.66,2.913-0.676,4.013-0.026l73.666,43.352c1.1,0.65,1.088,1.71-0.03,2.375
					l-2.184,1.292c-1.115,0.664-2.913,0.674-4.013,0.024l-73.666-43.352c-1.098-0.65-1.085-1.71,0.03-2.37L352.699,1065.424z"/>
				<path fill="#7EC0FF" d="M231.25,1141.163c1.116-0.664,2.913-0.674,4.014-0.024l73.666,43.35c1.1,0.65,1.085,1.71-0.03,2.37
					l-2.184,1.296c-1.115,0.66-2.913,0.67-4.013,0.026l-73.666-43.352c-1.1-0.65-1.086-1.71,0.03-2.376L231.25,1141.163z"/>
				<path fill="#7EC0FF" d="M290.291,1097.036c1.115-0.66,2.913-0.674,4.013-0.024l73.664,43.352c1.1,0.65,1.088,1.71-0.028,2.37
					l-2.183,1.295c-1.116,0.66-2.913,0.676-4.014,0.026l-73.666-43.352c-1.097-0.65-1.087-1.71,0.03-2.37L290.291,1097.036
					L290.291,1097.036z"/>
				<path fill="#7EC0FF" d="M175.161,1176.151c1.115-0.66,2.913-0.67,4.013-0.024l73.666,43.356c1.101,0.646,1.085,1.71-0.03,2.37
					l-2.183,1.296c-1.116,0.66-2.913,0.67-4.014,0.024l-73.666-43.356c-1.098-0.644-1.085-1.71,0.031-2.37L175.161,1176.151
					L175.161,1176.151z"/>
				<path fill="#7EC0FF" d="M328.866,1066.705c1.116-0.666,2.913-0.676,4.013-0.03l98.746,58.114c1.097,0.65,1.085,1.71-0.03,2.37
					l-2.184,1.296c-1.115,0.66-2.915,0.676-4.013,0.024l-98.745-58.114c-1.101-0.646-1.086-1.705,0.03-2.37L328.866,1066.705
					L328.866,1066.705z"/>
				<path fill="#7EC0FF" d="M207.55,1142.094c1.115-0.66,2.913-0.671,4.013-0.02l98.745,58.115c1.098,0.646,1.088,1.705-0.03,2.37
					l-2.183,1.29c-1.116,0.666-2.913,0.676-4.013,0.026l-98.744-58.11c-1.1-0.65-1.087-1.716,0.028-2.376L207.55,1142.094
					L207.55,1142.094z"/>
				<path fill="#7EC0FF" d="M273.176,1101.893c1.116-0.666,2.916-0.676,4.013-0.026l98.746,58.116
					c1.098,0.644,1.085,1.705-0.031,2.37l-2.183,1.29c-1.115,0.666-2.913,0.676-4.013,0.03l-98.743-58.114
					c-1.1-0.65-1.087-1.71,0.028-2.376L273.176,1101.893L273.176,1101.893z"/>
				<path fill="#7EC0FF" d="M152.878,1177.408c1.115-0.66,2.913-0.67,4.013-0.026l98.743,58.116c1.1,0.644,1.088,1.71-0.028,2.37
					l-2.183,1.294c-1.116,0.661-2.913,0.676-4.013,0.026l-98.746-58.114c-1.097-0.646-1.085-1.71,0.03-2.37L152.878,1177.408
					L152.878,1177.408z"/>
			</g>
		</g>
	</g>
	<g>
		<path fill="#F1F2F2" d="M591.488,921.852l61.736,35.64c13.116,7.577,13.116,19.87,0,27.446c-13.118,7.572-34.417,7.572-47.532,0
			l-61.736-35.643l-0.156-0.091c-12.963-7.577-12.911-19.81,0.156-27.352C557.071,914.28,578.37,914.28,591.488,921.852
			L591.488,921.852z"/>
		<path fill="#AFD8FF" d="M627.77,972.526c-8.032-0.23-15.947-2.116-22.076-5.652l-61.736-35.645l-0.155-0.089
			c-6.029-3.526-9.245-8.058-9.642-12.659l0,0l0,0c-0.055-0.65-0.055-1.3,0-1.945v-97.141l88.12,50.878v-2.736l25.652-14.814v12.979
			l15.089-8.713v95.185l0,0c0.455,5.287-2.808,10.662-9.795,14.699C646.236,970.905,636.93,972.79,627.77,972.526L627.77,972.526
			L627.77,972.526z"/>
		<path fill="#7FC0FE" d="M591.488,806.652l61.736,35.645c13.116,7.571,13.116,19.87,0,27.442c-13.118,7.572-34.417,7.572-47.532,0
			l-61.736-35.644l-0.156-0.085c-12.963-7.582-12.911-19.815,0.156-27.357C557.071,799.081,578.37,799.081,591.488,806.652z"/>
		<path fill="#AFD8FF" d="M554.393,745.372l-0.002,71.128c0,7.717,6.267,9.743,13.984,9.743c7.717,0,13.981-2.026,13.981-9.743
			v-71.013v0.005v-0.06c0.003-0.795,0.218-1.871,0.36-2.485c1.305,0.205,5.387,0.965,8.302,2.651
			c12.186,7.032,22.621,22.09,22.646,34.058v71.063c0,7.717,6.266,9.742,13.984,9.742s13.981-2.025,13.981-9.742v-71.123
			c-0.042-20.125-16.139-46.387-36.627-58.215c-12.861-7.427-24.696-7.842-33.141-4.446c-10.07,4.051-17.437,13.414-17.47,28.438
			H554.393z"/>
		<path fill="#7FC0FE" d="M582.368,745.122l-0.013-1.886c0,0-11.545-0.985-11.545,16.639v66.292
			c6.559-0.43,11.545-2.785,11.545-9.667v-71.013v0.005v-0.06C582.358,745.332,582.36,745.227,582.368,745.122z"/>
	</g>
	<g>
		<path fill="#C875FF" d="M1282.214,781.387c1.08-0.571,2.471-0.48,3.902,0.409l190.758,118.945
			c2.846,1.781,4.796,6.057,4.352,9.553l-21.215,165.307c-0.221,1.736-1.001,2.957-2.071,3.521l0,0h-0.004
			c-0.091,0.055-0.19,0.095-0.287,0.135l-10.407,3.971l0.139-4.562l-188.662-117.64c-2.851-1.776-4.803-6.056-4.352-9.548
			l20.904-162.912l-3.49-3.206L1282.214,781.387L1282.214,781.387L1282.214,781.387z"/>
		<g>
			<defs>
				<path id="SVGID_9_" d="M1282.214,781.387c1.08-0.571,2.471-0.48,3.902,0.409l190.758,118.945
					c2.846,1.781,4.796,6.057,4.352,9.553l-21.215,165.307c-0.221,1.736-1.001,2.957-2.071,3.521l0,0h-0.004
					c-0.091,0.055-0.19,0.095-0.287,0.135l-10.407,3.971l0.139-4.562l-188.662-117.64c-2.851-1.776-4.803-6.056-4.352-9.548
					l20.904-162.912l-3.49-3.206L1282.214,781.387L1282.214,781.387L1282.214,781.387z"/>
			</defs>
			<clipPath id="SVGID_10_">
				<use xlink:href="#SVGID_9_"  overflow="visible"/>
			</clipPath>
			<g clip-path="url(#SVGID_10_)">
				<path fill="#B649FF" d="M1480.615,913.49l-12.553,4.306l-20.815,165.357l12.557-4.306L1480.615,913.49z"/>
			</g>
			<path clip-path="url(#SVGID_10_)" fill="#E9CAFF" d="M1470.522,914.396c0.45-3.497-1.389-7.707-4.11-9.403l-191.234-119.246
				c-2.722-1.69-5.287-0.23-5.737,3.26l-21.211,165.307c-0.45,3.496,1.391,7.707,4.11,9.403l191.235,119.245
				c2.715,1.696,5.287,0.23,5.736-3.26L1470.522,914.396z"/>
			<path clip-path="url(#SVGID_10_)" fill="#8A29FF" d="M1467.242,916.006c0.444-3.466-1.486-7.707-4.311-9.468l-187.995-117.225
				c-2.825-1.76-5.482-0.38-5.926,3.086l-20.785,161.971c-0.446,3.466,1.49,7.707,4.311,9.467l187.997,117.225
				c2.827,1.76,5.482,0.38,5.922-3.086L1467.242,916.006L1467.242,916.006z"/>
			<path clip-path="url(#SVGID_10_)" fill="#C875FF" d="M1467.282,916.085c0.444-3.491-1.5-7.772-4.35-9.547l-187.749-117.07
				c-2.852-1.776-5.526-0.385-5.977,3.11l-2.93,23.211l72.833,130.019l125.196-6.542L1467.282,916.085L1467.282,916.085z"/>
		</g>
	</g>
</g>
</svg>
